<?xml version="1.0" standalone="no"?>
<!DOCTYPE svg PUBLIC "-//W3C//DTD SVG 1.1//EN" "http://www.w3.org/Graphics/SVG/1.1/DTD/svg11.dtd" >
<svg xmlns="http://www.w3.org/2000/svg" xmlns:xlink="http://www.w3.org/1999/xlink" version="1.1">
<metadata>
Created by FontForge 20161013 at Wed Aug 10 15:20:23 2016
 By ,,,
Copyright (c) 2015 by typedepot. All rights reserved.
</metadata>
<defs>
<font id="CentraleSans-Book" horiz-adv-x="680" >
  <font-face 
    font-family="Centrale Sans Book"
    font-weight="400"
    font-stretch="normal"
    units-per-em="1000"
    panose-1="0 0 5 0 0 0 0 0 0 0"
    ascent="800"
    descent="-200"
    x-height="520"
    cap-height="700"
    bbox="-198 -239 1158 898"
    underline-thickness="50"
    underline-position="-150"
    unicode-range="U+000D-2212"
  />
<missing-glyph horiz-adv-x="690" 
d="M108 732h475v-853h-475v853zM514 682h-338l169 -322zM316 306l-160 305v-611zM534 611l-160 -305l160 -306v611zM514 -71l-169 322l-169 -322h338z" />
    <glyph glyph-name=".notdef" horiz-adv-x="690" 
d="M108 732h475v-853h-475v853zM514 682h-338l169 -322zM316 306l-160 305v-611zM534 611l-160 -305l160 -306v611zM514 -71l-169 322l-169 -322h338z" />
    <glyph glyph-name=".null" horiz-adv-x="0" 
 />
    <glyph glyph-name="nonmarkingreturn" unicode="&#xd;" horiz-adv-x="321" 
 />
    <glyph glyph-name="space" unicode=" " horiz-adv-x="257" 
 />
    <glyph glyph-name="exclam" unicode="!" horiz-adv-x="256" 
d="M82 700h93l-12 -515h-68zM89 3.5q-14 12.5 -14 36.5q0 23 14.5 35.5t37.5 12.5q24 0 38 -12.5t14 -35.5q0 -25 -14 -37t-38 -12t-38 12.5z" />
    <glyph glyph-name="quotedbl" unicode="&#x22;" horiz-adv-x="365" 
d="M127 466h-57l-2 234h80zM287 466h-57l-2 234h80z" />
    <glyph glyph-name="numbersign" unicode="#" horiz-adv-x="724" 
d="M546 460l-40 -227h130v-68h-143l-29 -165h-73l29 165h-189l-29 -165h-74l29 165h-121v68h134l40 227h-123v67h135l31 173h74l-31 -173h189l31 173h73l-31 -173h130v-67h-142zM473 460h-189l-40 -227h189z" />
    <glyph glyph-name="dollar" unicode="$" horiz-adv-x="566" 
d="M469 47.5q-58 -48.5 -161 -53.5v-87h-48v88q-65 5 -111.5 18.5t-97.5 35.5l10 75q39 -20 100.5 -40.5t120.5 -20.5q76 0 115.5 29t39.5 84q0 43 -23.5 68t-56 37.5t-105.5 34.5q-64 19 -106 40t-69.5 60t-27.5 100q0 86 55.5 137t155.5 56v83h48v-83q59 -3 104.5 -15.5
t88.5 -30.5l-12 -76q-30 16 -84.5 34t-113.5 18q-73 0 -112.5 -30t-39.5 -85q0 -42 24.5 -67.5t57.5 -38t104 -33.5q97 -28 149.5 -70.5t52.5 -126.5q0 -92 -58 -140.5z" />
    <glyph glyph-name="percent" unicode="%" horiz-adv-x="789" 
d="M596 730h83l-491 -760h-83zM74.5 420q-43.5 46 -43.5 120q0 77 44 124t115 47t114.5 -46.5t43.5 -123.5q0 -75 -43.5 -121t-116.5 -46q-70 0 -113.5 46zM253 462q25 30 25 79q0 51 -25 81.5t-64 30.5q-40 0 -65.5 -31.5t-25.5 -80.5t26 -79t65 -30t64 30zM483.5 37
q-43.5 46 -43.5 120q0 77 44.5 124t115.5 47t114 -46.5t43 -122.5q0 -75 -43.5 -121.5t-115.5 -46.5q-71 0 -114.5 46zM664 79q25 30 25 80t-25 80.5t-64 30.5q-40 0 -65.5 -31t-25.5 -80q0 -50 26 -80t65 -30t64 30z" />
    <glyph glyph-name="ampersand" unicode="&#x26;" horiz-adv-x="644" 
d="M579 -21q-65 50 -116 92q-88 -80 -201 -80q-93 0 -155.5 46.5t-62.5 136.5q0 65 34.5 114.5t92.5 91.5q-61 98 -61 176q0 71 47 112t116 41q68 0 114.5 -39t46.5 -107q0 -47 -23 -83.5t-57 -62.5t-87 -57q66 -85 193 -194q40 50 85 143l59 -30q-40 -91 -93 -157
q52 -44 128 -102zM228 416q52 31 76 47.5t42 40.5t18 56q0 40 -25.5 63t-63.5 23q-39 0 -66.5 -26.5t-27.5 -66.5q0 -64 47 -137zM411 116q-126 111 -202 209q-42 -28 -65 -60.5t-23 -78.5q0 -59 42 -92.5t104 -33.5q78 0 144 56z" />
    <glyph glyph-name="quotesingle" unicode="'" horiz-adv-x="204" 
d="M129 476h-61l-1 224h78z" />
    <glyph glyph-name="parenleft" unicode="(" horiz-adv-x="317" 
d="M182.5 542q-53.5 -111 -53.5 -260q0 -256 181 -452h-87q-67 68 -121 185.5t-54 266.5q0 148 54 265t121 185h87q-74 -79 -127.5 -190z" />
    <glyph glyph-name="parenright" unicode=")" horiz-adv-x="317" 
d="M215 547q54 -117 54 -265q0 -149 -54 -266.5t-121 -185.5h-87q181 196 181 452q0 149 -53.5 260t-127.5 190h87q67 -68 121 -185z" />
    <glyph glyph-name="asterisk" unicode="*" horiz-adv-x="415" 
d="M228 581l106 73l28 -48l-116 -55l116 -56l-28 -49l-106 74l9 -128h-53l10 128l-107 -74l-28 49l116 56l-115 55l27 48l107 -73l-10 128h53z" />
    <glyph glyph-name="plus" unicode="+" 
d="M368 364h187v-58h-187v-186h-58v186h-186v58h186v186h58v-186z" />
    <glyph glyph-name="comma" unicode="," horiz-adv-x="233" 
d="M159.5 71q19.5 -24 19.5 -65q0 -47 -27.5 -83.5t-68.5 -58.5l-20 31q27 16 47 42.5t21 62.5l-1 14q-7 -19 -28 -19q-22 0 -33.5 13t-11.5 35q0 24 14.5 38t40.5 14q28 0 47.5 -24z" />
    <glyph glyph-name="hyphen" unicode="-" horiz-adv-x="479" 
d="M411 237h-343v62h343v-62z" />
    <glyph glyph-name="period" unicode="." horiz-adv-x="222" 
d="M70.5 5q-14.5 14 -14.5 38q0 23 14.5 37.5t39.5 14.5q26 0 40.5 -14.5t14.5 -37.5t-14.5 -37.5t-40.5 -14.5q-25 0 -39.5 14z" />
    <glyph glyph-name="slash" unicode="/" horiz-adv-x="505" 
d="M87 -170h-71l401 972h72z" />
    <glyph glyph-name="zero" unicode="0" 
d="M135.5 88q-71.5 97 -71.5 262q0 108 32 189t94 125.5t151 44.5q88 0 150 -44t93.5 -124.5t31.5 -188.5q0 -109 -32 -190t-94 -126t-150 -45q-133 0 -204.5 97zM481.5 137.5q45.5 74.5 45.5 212.5q0 137 -46 212t-141 75t-141 -75t-46 -211q0 -138 46 -213t142 -75
q95 0 140.5 74.5z" />
    <glyph glyph-name="one" unicode="1" horiz-adv-x="374" 
d="M279 704v-704h-84v629l-176 -62l-3 69l192 68h71z" />
    <glyph glyph-name="two" unicode="2" horiz-adv-x="566" 
d="M167 84l-16 -12h357v-72h-468v64q115 100 175 149q31 24 60 50q75 64 110.5 113t35.5 114q0 68 -43 107t-123 39q-49 0 -106.5 -16t-102.5 -35l-6 80q50 20 110.5 31.5t114.5 11.5q115 0 180 -54t65 -157q0 -73 -38 -131.5t-129 -136.5q-108 -94 -176 -145z" />
    <glyph glyph-name="three" unicode="3" horiz-adv-x="573" 
d="M478 307q42 -46 42 -118q0 -97 -73.5 -146.5t-195.5 -49.5q-59 0 -114.5 9.5t-91.5 24.5l7 73q111 -40 189 -40q81 0 133.5 34t52.5 103q0 71 -55 105t-130 34h-68v64h69q65 0 113.5 32t48.5 94q0 60 -45 87.5t-112 27.5q-44 0 -95.5 -12.5t-88.5 -27.5l-8 70
q32 14 91.5 26t116.5 12q107 0 169 -44.5t62 -126.5q0 -60 -34 -106t-97 -66q72 -13 114 -59z" />
    <glyph glyph-name="four" unicode="4" horiz-adv-x="584" 
d="M545 231v-65h-85v-166h-82v166h-359v62l359 476h82v-473h85zM378 231v362l-274 -362h274z" />
    <glyph glyph-name="five" unicode="5" horiz-adv-x="582" 
d="M473 372.5q65 -56.5 65 -154.5q0 -105 -72.5 -165.5t-197.5 -60.5q-68 0 -117.5 10.5t-92.5 29.5l6 76q43 -20 89.5 -34.5t101.5 -14.5q89 0 141.5 41.5t52.5 116.5q0 72 -46.5 109.5t-121.5 37.5q-49 0 -82 -17t-59 -40l-66 14v379h429v-71h-356v-251q31 25 71 38t85 13
q105 0 170 -56.5z" />
    <glyph glyph-name="six" unicode="6" horiz-adv-x="638" 
d="M530 385q65 -57 65 -162q0 -108 -71 -169t-190 -61q-89 0 -146 35.5t-90 101.5q-44 85 -44 205q0 79 19.5 149t57.5 120t95.5 77.5t142.5 27.5q48 0 98 -9t87 -23l-8 -70q-36 15 -82 25t-89 10q-68 0 -113 -24t-73 -68q-45 -67 -48 -191q0 -26 2 -37q25 55 81.5 87.5
t136.5 32.5q104 0 169 -57zM458.5 101.5q46.5 44.5 46.5 119.5q0 73 -46.5 116t-121.5 43q-55 0 -95 -23t-61 -61t-21 -81q0 -29 9 -53q16 -49 61 -77t105 -28q77 0 123.5 44.5z" />
    <glyph glyph-name="seven" unicode="7" horiz-adv-x="505" 
d="M486 700v-78l-273 -622h-101l292 628h-386v72h468z" />
    <glyph glyph-name="eight" unicode="8" horiz-adv-x="631" 
d="M539.5 307q40.5 -46 40.5 -120q0 -96 -71.5 -146t-191.5 -50q-119 0 -192 50.5t-73 147.5q0 72 40 117.5t111 64.5q-57 17 -89.5 59.5t-32.5 99.5q0 85 64 132t171 47t171 -47t64 -132q0 -57 -33 -99.5t-90 -59.5q71 -18 111.5 -64zM205 434q39 -35 111 -35t111 35t39 87
q0 60 -40.5 92.5t-109.5 32.5t-109.5 -32.5t-40.5 -92.5q0 -52 39 -87zM444 92q47 36 47 104q0 65 -46.5 104.5t-127.5 39.5q-82 0 -128.5 -39.5t-46.5 -104.5q0 -68 47.5 -104t127.5 -36t127 36z" />
    <glyph glyph-name="nine" unicode="9" horiz-adv-x="639" 
d="M585 364q0 -76 -19 -146t-58 -121q-78 -104 -237 -104q-49 0 -100.5 9t-88.5 23l7 75q39 -17 86 -28.5t90 -11.5q127 0 186 91q44 69 47 190q0 31 -2 45q-25 -59 -81 -93t-136 -34q-104 0 -169.5 57t-65.5 162q0 109 71 170t190 61q89 0 146.5 -36t90.5 -102
q43 -86 43 -207zM398 345q40 23 61 60.5t21 80.5q0 30 -9 54q-16 49 -61 77t-105 28q-77 0 -123.5 -45t-46.5 -119q0 -73 46.5 -116t121.5 -43q55 0 95 23z" />
    <glyph glyph-name="colon" unicode=":" horiz-adv-x="242" 
d="M80.5 372q-14.5 13 -14.5 38q0 23 15 37.5t39 14.5q25 0 40 -14.5t15 -37.5q0 -25 -15 -38t-40 -13t-39.5 13zM80.5 4.5q-14.5 13.5 -14.5 38.5q0 23 15 37.5t39 14.5q25 0 40 -14.5t15 -37.5q0 -25 -15 -38.5t-40 -13.5t-39.5 13.5z" />
    <glyph glyph-name="semicolon" unicode=";" horiz-adv-x="269" 
d="M88.5 372q-14.5 13 -14.5 38q0 23 15 37.5t39 14.5q25 0 40 -14.5t15 -37.5q0 -25 -15 -38t-40 -13t-39.5 13zM178.5 71q19.5 -24 19.5 -65q0 -47 -27.5 -83.5t-68.5 -58.5l-20 31q27 16 47 42.5t21 62.5l-1 14q-7 -19 -28 -19q-22 0 -33.5 13t-11.5 35q0 24 14.5 38
t40.5 14q28 0 47.5 -24z" />
    <glyph glyph-name="less" unicode="&#x3c;" horiz-adv-x="679" 
d="M566 483l-399 -147l399 -147v-72l-485 185v68l485 185v-72z" />
    <glyph glyph-name="equal" unicode="=" 
d="M523 390h-367v59h367v-59zM523 219h-367v58h367v-58z" />
    <glyph glyph-name="greater" unicode="&#x3e;" horiz-adv-x="679" 
d="M598 370v-68l-485 -185v72l400 147l-400 147v72z" />
    <glyph glyph-name="question" unicode="?" horiz-adv-x="448" 
d="M150 256q1 37 15 65t33 47t51 44q42 32 63 58t21 65q0 51 -38 79.5t-97 28.5q-69 0 -161 -42l-11 68q90 40 177 40q91 0 152 -42.5t61 -127.5q0 -40 -14.5 -69.5t-35.5 -49.5t-54 -44q-44 -31 -65.5 -57t-22.5 -67l-1 -33l1 -34h-74v71zM150 3.5q-14 12.5 -14 36.5
q0 23 14.5 35.5t37.5 12.5q24 0 38 -12.5t14 -35.5q0 -25 -14 -37t-38 -12t-38 12.5z" />
    <glyph glyph-name="at" unicode="@" horiz-adv-x="947" 
d="M634 213q-2 -16 -2 -23q0 -58 68 -58q75 0 113 65t38 157q0 150 -95 221t-243 71q-124 0 -216.5 -48t-142 -136t-49.5 -204q0 -164 94.5 -245t252.5 -81q69 0 131.5 15t108.5 35l4 -49q-122 -46 -247 -46q-123 0 -213 43t-138 126t-48 200q0 129 57 227.5t162 153.5
t245 55q113 0 201.5 -37.5t140 -113.5t51.5 -188q0 -78 -25.5 -138.5t-73.5 -94.5t-114 -34q-102 0 -109 82q-23 -39 -61 -60t-90 -21q-80 0 -125.5 49t-45.5 132q0 57 21.5 107.5t65.5 82t109 31.5q55 0 91.5 -24t52.5 -65l19 83h59zM553 188.5q33 51.5 33 119.5
q0 63 -29.5 97t-87.5 34q-75 0 -108.5 -51t-33.5 -117q0 -63 32 -98.5t89 -35.5q72 0 105 51.5z" />
    <glyph glyph-name="A" unicode="A" horiz-adv-x="687" 
d="M518 180h-354l-70 -180h-88l282 704h111l281 -704h-92zM491 249l-149 380h-2l-149 -380h300z" />
    <glyph glyph-name="B" unicode="B" horiz-adv-x="682" 
d="M556.5 331.5q32.5 -21.5 53.5 -58.5t21 -87q0 -58 -26 -100t-72 -64t-103 -22h-336v700h306q94 0 149.5 -47t55.5 -134q0 -67 -36.5 -107t-79.5 -54q35 -5 67.5 -26.5zM180 388h216q58 0 91 33t33 87q0 58 -36 91t-89 33h-215v-244zM507.5 103q36.5 35 36.5 92
q0 54 -34 91t-102 37h-228v-255h235q56 0 92.5 35z" />
    <glyph glyph-name="C" unicode="C" horiz-adv-x="664" 
d="M230.5 34.5q-84.5 43.5 -132.5 124.5t-48 190q0 110 49 191.5t134 125t193 43.5q54 0 108 -9t96 -26l-6 -77q-36 15 -87.5 27t-96.5 12q-92 0 -159 -36t-102 -101t-35 -150t35.5 -149.5t102 -100t158.5 -35.5q84 0 188 42l5 -78q-42 -17 -98 -27t-112 -10
q-108 0 -192.5 43.5z" />
    <glyph glyph-name="D" unicode="D" horiz-adv-x="747" 
d="M94 700h286q84 0 160 -44q78 -46 117 -126t40 -179q0 -100 -39.5 -181.5t-117.5 -125.5q-37 -22 -80 -33t-80 -11h-286v700zM359 69q44 0 90.5 17.5t77.5 46.5q38 35 57.5 92.5t19.5 126.5q0 79 -27 140.5t-78 95.5q-32 21 -69 32t-70 11h-178v-562h177z" />
    <glyph glyph-name="E" unicode="E" horiz-adv-x="631" 
d="M585 631h-403v-255h348v-69h-348v-238h416v-69h-504v700h491v-69z" />
    <glyph glyph-name="F" unicode="F" horiz-adv-x="600" 
d="M578 631h-396v-263h341v-69h-341v-299h-88v700h484v-69z" />
    <glyph glyph-name="G" unicode="G" horiz-adv-x="745" 
d="M688 354v-306q-57 -29 -126.5 -43t-137.5 -14q-110 0 -194.5 42.5t-132 123t-47.5 191.5q0 110 47 191.5t133.5 125.5t202.5 44q58 0 119 -9t108 -27l-6 -80q-45 21 -103.5 33.5t-109.5 12.5q-94 0 -161.5 -37t-102 -102.5t-34.5 -149.5q0 -85 34.5 -150t98.5 -101.5
t151 -36.5q51 0 105 10t83 25v197h-196v60h269z" />
    <glyph glyph-name="H" unicode="H" horiz-adv-x="759" 
d="M666 0h-88v311h-396v-311h-88v700h88v-319h396v319h88v-700z" />
    <glyph glyph-name="I" unicode="I" horiz-adv-x="275" 
d="M182 0h-88v700h88v-700z" />
    <glyph glyph-name="J" unicode="J" horiz-adv-x="486" 
d="M401 207q0 -109 -63.5 -162.5t-168.5 -53.5q-76 0 -155 36l10 72q72 -37 141 -37q68 0 108 35t40 111v426h-195v66h283v-493z" />
    <glyph glyph-name="K" unicode="K" horiz-adv-x="666" 
d="M333 366l-151 -163v-203h-88v700h88v-385l359 385h103l-248 -267l267 -433h-108z" />
    <glyph glyph-name="L" unicode="L" horiz-adv-x="560" 
d="M182 70h368v-70h-456v700h88v-630z" />
    <glyph glyph-name="M" unicode="M" horiz-adv-x="929" 
d="M836 700v-700h-85v397l8 221l-253 -540h-81l-253 537l7 -218v-397h-85v700h125l249 -532l245 532h123z" />
    <glyph glyph-name="N" unicode="N" horiz-adv-x="745" 
d="M652 700v-700h-91l-386 578l2 -200l1 -378h-84v700h92l386 -573l-4 203v370h84z" />
    <glyph glyph-name="O" unicode="O" horiz-adv-x="806" 
d="M217 35.5q-80 44.5 -123.5 125.5t-43.5 188t44 189t124 126.5t185 44.5q106 0 186 -44.5t123.5 -126t43.5 -189.5q0 -107 -43 -188t-123 -125.5t-187 -44.5q-106 0 -186 44.5zM540.5 96q58.5 34 91 98.5t32.5 153.5t-32 154.5t-91 100.5t-137 35t-137 -34.5t-91.5 -100
t-32.5 -155.5q0 -89 32.5 -153.5t91.5 -98.5t137 -34t136.5 34z" />
    <glyph glyph-name="P" unicode="P" 
d="M94 700h323q70 0 122 -29.5t80 -81t28 -113.5q0 -64 -28.5 -115t-81 -80t-121.5 -29h-234v-252h-88v700zM399 321q70 0 113.5 44t43.5 111t-43.5 111t-113.5 44h-217v-310h217z" />
    <glyph glyph-name="Q" unicode="Q" horiz-adv-x="806" 
d="M656 -24l86 -37l-30 -70l-281 123q-9 -1 -28 -1q-106 0 -186 44.5t-123.5 125.5t-43.5 188t44 189t124 126.5t185 44.5q106 0 186 -44.5t123.5 -126t43.5 -189.5q0 -123 -56.5 -211t-157.5 -124q45 -8 114 -38zM175.5 194.5q32.5 -64.5 91.5 -98.5t137 -34t136.5 34
t91 98.5t32.5 153.5t-32 154.5t-91 100.5t-137 35t-137 -34.5t-91.5 -100t-32.5 -155.5q0 -89 32.5 -153.5z" />
    <glyph glyph-name="R" unicode="R" horiz-adv-x="694" 
d="M607 363q-39 -54 -107 -75l137 -288h-94l-126 280h-235v-280h-88v700h340q64 0 112 -28.5t74 -77t26 -106.5q0 -71 -39 -125zM182 349h236q63 0 101 40.5t38 100.5t-38 100.5t-101 40.5h-236v-282z" />
    <glyph glyph-name="S" unicode="S" horiz-adv-x="607" 
d="M165 10q-69 17 -115 39l12 80q52 -27 111 -46.5t132 -19.5q87 0 129.5 30.5t42.5 83.5q0 40 -22 64.5t-58 38.5t-103 32q-81 22 -128.5 41.5t-80 58.5t-32.5 104q0 95 68.5 144t182.5 49q63 0 126.5 -14t107.5 -34l-10 -78q-35 17 -91 36t-127 19q-79 0 -122.5 -29.5
t-43.5 -82.5q0 -42 25 -67.5t60 -38.5t97 -29q80 -21 129.5 -42t80.5 -59.5t31 -101.5q0 -96 -70 -145.5t-190 -49.5q-73 0 -142 17z" />
    <glyph glyph-name="T" unicode="T" horiz-adv-x="590" 
d="M580 631h-241v-631h-88v631h-241v69h570v-69z" />
    <glyph glyph-name="U" unicode="U" horiz-adv-x="724" 
d="M639 245q0 -80 -35.5 -137t-98 -87t-142.5 -30q-83 0 -146 31t-97.5 88.5t-34.5 134.5v455h88v-459q0 -55 25 -95.5t68.5 -62t96.5 -21.5q83 0 139.5 46t56.5 133v459h80v-455z" />
    <glyph glyph-name="V" unicode="V" horiz-adv-x="651" 
d="M640 700l-264 -700h-102l-264 700h93l225 -610l224 610h88z" />
    <glyph glyph-name="W" unicode="W" horiz-adv-x="972" 
d="M947 700l-200 -700h-104l-158 580h-2l-157 -580h-109l-199 700h88l169 -616h2l164 611h94l165 -611h2l167 616h78z" />
    <glyph glyph-name="X" unicode="X" horiz-adv-x="651" 
d="M531 0l-204 287l-208 -287h-106l256 341l-259 359h108l209 -289l208 289h102l-254 -344l259 -356h-111z" />
    <glyph glyph-name="Y" unicode="Y" horiz-adv-x="610" 
d="M350 275v-275h-88v275l-252 425h91l207 -355l206 355h88z" />
    <glyph glyph-name="Z" unicode="Z" horiz-adv-x="601" 
d="M566 642l-432 -576l212 3h220v-69h-538v59l430 574l-415 -2v69h523v-58z" />
    <glyph glyph-name="bracketleft" unicode="[" horiz-adv-x="301" 
d="M271 674h-104v-786h104v-58h-183v902h183v-58z" />
    <glyph glyph-name="backslash" unicode="\" horiz-adv-x="502" 
d="M486 -170h-68l-402 972h69z" />
    <glyph glyph-name="bracketright" unicode="]" horiz-adv-x="301" 
d="M212 -170h-183v58h104v786h-104v58h183v-902z" />
    <glyph glyph-name="asciicircum" unicode="^" 
d="M490 369l-150 293l-150 -293h-66l178 331h75l178 -331h-65z" />
    <glyph glyph-name="underscore" unicode="_" horiz-adv-x="441" 
d="M451 -137h-461v59h461v-59z" />
    <glyph glyph-name="grave" unicode="`" horiz-adv-x="337" 
d="M254 600h-62l-82 168h77z" />
    <glyph glyph-name="a" unicode="a" horiz-adv-x="587" 
d="M588 5q-45 -9 -73 -9q-44 0 -70.5 16.5t-26.5 53.5v5q-28 -36 -77.5 -57t-117.5 -21q-89 0 -139 39t-50 118q0 87 61.5 123t177.5 36q56 0 140 -8v58q0 55 -33 79.5t-104 24.5q-42 0 -96 -9.5t-97 -23.5l-5 70q102 27 206 27q109 0 160 -37t51 -131v-252q0 -21 6.5 -30
t14 -10.5t21.5 -1.5q7 0 24 5t26 7zM364.5 89q48.5 38 48.5 101v59q-72 8 -129 8q-84 0 -125 -24.5t-41 -79.5q0 -54 35 -78t90 -24q73 0 121.5 38z" />
    <glyph glyph-name="b" unicode="b" horiz-adv-x="639" 
d="M485 492q54 -35 81.5 -96t27.5 -137q0 -75 -27.5 -135t-81.5 -95.5t-130 -35.5q-63 0 -115.5 23.5t-83.5 71.5l-7 -88h-71v732h82v-296q29 43 79.5 67t115.5 24q76 0 130 -35zM463 111q47 55 47 148q0 95 -46.5 150t-129.5 55q-81 0 -128 -56.5t-47 -148.5t47.5 -147.5
t128.5 -55.5t128 55z" />
    <glyph glyph-name="c" unicode="c" horiz-adv-x="515" 
d="M180.5 24.5q-64.5 31.5 -100 91.5t-35.5 144t35.5 144t99.5 91.5t148 31.5q40 0 81 -6.5t72 -18.5l-8 -69q-24 12 -60.5 21.5t-75.5 9.5q-100 0 -154 -56t-54 -148q0 -93 54.5 -148.5t155.5 -55.5q66 0 134 34l7 -67q-74 -30 -151 -30q-84 0 -148.5 31.5z" />
    <glyph glyph-name="d" unicode="d" horiz-adv-x="639" 
d="M561 732v-732h-76l-5 87q-31 -48 -82.5 -71t-114.5 -23q-76 0 -130 35.5t-81 95.5t-27 135q0 76 27.5 137t81.5 96t130 35q66 0 116 -24t79 -69v298h82zM432 111.5q47 55.5 47 147.5t-46 148.5t-127 56.5q-84 0 -131 -55t-47 -150q0 -93 47.5 -148t130.5 -55
q79 0 126 55.5z" />
    <glyph glyph-name="e" unicode="e" horiz-adv-x="588" 
d="M546 249.5q-1 -11.5 -2 -16.5h-415q1 -86 56.5 -132.5t148.5 -46.5q44 0 94 13t91 33l5 -70q-92 -37 -198 -37q-135 0 -208 71t-73 195q0 79 32 140t91.5 94.5t140.5 33.5q75 0 129 -32t81.5 -89t27.5 -131q0 -14 -1 -25.5zM470 287q0 81 -42.5 130t-115.5 49
q-78 0 -125.5 -45.5t-55.5 -133.5h339z" />
    <glyph glyph-name="f" unicode="f" horiz-adv-x="350" 
d="M103 461h-75v59h75v51q0 85 35 126.5t121 41.5q50 0 95 -12l-3 -66q-14 7 -34.5 12t-39.5 5q-50 0 -71.5 -26.5t-21.5 -82.5v-49h159v-59h-159v-461h-81v461z" />
    <glyph glyph-name="g" unicode="g" horiz-adv-x="574" 
d="M538 463l-93 5q28 -15 46.5 -44.5t18.5 -75.5q0 -75 -56.5 -117.5t-166.5 -42.5q-71 0 -121 19q-33 -21 -33 -53q1 -37 39 -47.5t112 -10.5h67q88 0 135 -27t47 -94q0 -85 -67.5 -117.5t-177.5 -32.5q-243 0 -243 130q0 62 74 105q-56 25 -56 82q0 30 16.5 52t44.5 35
q-58 44 -58 127q0 86 58 128.5t165 42.5q48 0 82 -7h167v-57zM393 274q36 28 36 83q0 57 -37 84.5t-104 27.5t-104 -27.5t-37 -85.5t37.5 -84t102.5 -26q70 0 106 28zM163 45q-21 -15 -33.5 -33.5t-12.5 -43.5q0 -51 46 -69.5t127 -18.5q76 0 121.5 18t45.5 70
q0 38 -27.5 52.5t-87.5 14.5h-50q-83 0 -129 10z" />
    <glyph glyph-name="h" unicode="h" horiz-adv-x="612" 
d="M488 478q51 -49 51 -152v-326h-82v319q0 71 -35 108t-98 37q-55 0 -92 -27t-54.5 -68.5t-17.5 -85.5v-283h-82v732h82v-307q28 47 75 74.5t114 27.5q88 0 139 -49z" />
    <glyph glyph-name="i" unicode="i" horiz-adv-x="261" 
d="M99 620q-13 12 -13 35q0 24 13.5 36t37.5 12t37.5 -12t13.5 -36q0 -47 -52 -47q-24 0 -37 12zM101 461h-98v59h180v-520h-82v461z" />
    <glyph glyph-name="j" unicode="j" horiz-adv-x="264" 
d="M97 620q-13 12 -13 35q0 24 13.5 36t37.5 12t37.5 -12t13.5 -36q0 -47 -52 -47q-24 0 -37 12zM-43 -161l2 61q12 -5 31.5 -8t36.5 -3q36 0 55 16t19 55v501h-97v59h179v-562q0 -69 -39.5 -99.5t-102.5 -30.5q-51 0 -84 11z" />
    <glyph glyph-name="k" unicode="k" horiz-adv-x="531" 
d="M427 0l-162 264l-105 -106v-158h-82v732h82v-480l265 268h90l-196 -200l200 -320h-92z" />
    <glyph glyph-name="l" unicode="l" horiz-adv-x="270" 
d="M162 100q0 -24 11 -33.5t32 -9.5t59 11v-66q-49 -9 -84 -9q-50 0 -75 22.5t-25 71.5v645h82v-632z" />
    <glyph glyph-name="m" unicode="m" horiz-adv-x="906" 
d="M786.5 478q46.5 -49 46.5 -152v-326h-82v326q0 69 -31 103.5t-88 34.5q-68 0 -101.5 -47t-33.5 -113v-304h-82v332q0 62 -34 97t-88 35q-63 0 -98 -41.5t-35 -109.5v-313h-82v520h71l5 -86q23 44 65.5 68.5t96.5 24.5q55 0 96.5 -27.5t60.5 -84.5q24 52 71 82t114 30
q82 0 128.5 -49z" />
    <glyph glyph-name="n" unicode="n" horiz-adv-x="612" 
d="M488 478q51 -49 51 -152v-326h-82v319q0 71 -35 108t-98 37q-55 0 -92 -27t-54.5 -68.5t-17.5 -85.5v-283h-82v520h72l6 -90q28 44 77 70.5t116 26.5q88 0 139 -49z" />
    <glyph glyph-name="o" unicode="o" horiz-adv-x="626" 
d="M173.5 24q-60.5 32 -94.5 93t-34 143t34 142.5t94.5 92.5t139.5 32t139.5 -32.5t94.5 -92.5t34 -142t-34 -143t-94.5 -93t-139.5 -32t-139.5 32zM446.5 110q50.5 54 50.5 149q0 96 -50.5 150.5t-134.5 54.5t-134 -54.5t-50 -150.5q0 -95 50 -149t134 -54t134.5 54z" />
    <glyph glyph-name="p" unicode="p" horiz-adv-x="639" 
d="M485 491.5q54 -35.5 81.5 -95.5t27.5 -135q0 -76 -27.5 -137t-81.5 -96t-130 -35q-65 0 -115.5 24t-79.5 66v-253h-82v690h71l7 -88q31 48 83.5 71.5t115.5 23.5q76 0 130 -35.5zM463 111q47 55 47 150q0 93 -47 148t-128 55t-128.5 -55.5t-47.5 -147.5t47 -148.5
t128 -56.5q82 0 129 55z" />
    <glyph glyph-name="q" unicode="q" horiz-adv-x="640" 
d="M562 520v-690h-82v253q-29 -42 -79.5 -66t-115.5 -24q-76 0 -130 35t-81.5 96t-27.5 137q0 75 27 135t81 95.5t131 35.5q63 0 115.5 -23.5t82.5 -72.5l8 89h71zM434 112.5q47 56.5 47 148.5t-47.5 147.5t-127.5 55.5q-81 0 -128.5 -55t-47.5 -148q0 -95 47 -150t129 -55
q81 0 128 56.5z" />
    <glyph glyph-name="r" unicode="r" horiz-adv-x="362" 
d="M353 520l-2 -77q-22 5 -47 5q-73 0 -108.5 -54.5t-35.5 -135.5v-258h-82v520h68l8 -109q16 48 53.5 80.5t100.5 32.5q26 0 45 -4z" />
    <glyph glyph-name="s" unicode="s" horiz-adv-x="489" 
d="M135.5 3.5q-51.5 10.5 -89.5 25.5l5 68q45 -19 89 -31.5t98 -12.5q65 0 96.5 21.5t31.5 59.5q0 28 -15 44t-43 26t-88 26q-56 15 -90.5 29t-58.5 43.5t-24 78.5q0 72 53 109t145 37q48 0 97.5 -9t84.5 -23l-4 -67q-40 16 -81 28t-88 12q-61 0 -91.5 -21.5t-30.5 -59.5
q0 -27 14.5 -43t38 -25t67.5 -20l22 -6q57 -15 92.5 -30t60 -44.5t24.5 -77.5q0 -74 -56 -111t-150 -37q-58 0 -109.5 10.5z" />
    <glyph glyph-name="t" unicode="t" horiz-adv-x="378" 
d="M184 520h179v-59h-179v-301q0 -58 20.5 -80t69.5 -22q33 0 88 24l3 -69q-24 -10 -56.5 -15t-62.5 -5q-75 0 -109 36.5t-34 124.5v307h-81v59h81l10 150h71v-150z" />
    <glyph glyph-name="u" unicode="u" horiz-adv-x="611" 
d="M533 520v-520h-72l-6 94q-28 -47 -76.5 -74t-116.5 -27q-88 0 -139 49t-51 152v326h82v-319q0 -71 34.5 -108t97.5 -37q55 0 92.5 27t55 68.5t17.5 85.5v283h82z" />
    <glyph glyph-name="v" unicode="v" horiz-adv-x="524" 
d="M509 520l-199 -520h-96l-199 520h85l165 -448h2l165 448h77z" />
    <glyph glyph-name="w" unicode="w" horiz-adv-x="801" 
d="M780 520l-157 -520h-93l-129 405h-2l-128 -405h-93l-158 520h81l127 -440h2l134 435h77l136 -435h2l127 440h74z" />
    <glyph glyph-name="x" unicode="x" horiz-adv-x="522" 
d="M414 0l-153 213l-157 -213h-88l192 258l-189 262h93l150 -204l153 204h86l-188 -252l194 -268h-93z" />
    <glyph glyph-name="y" unicode="y" horiz-adv-x="534" 
d="M521 520l-268 -690h-85l65 162l-220 528h86l176 -443l165 443h81z" />
    <glyph glyph-name="z" unicode="z" horiz-adv-x="507" 
d="M469 453l-338 -395l163 2h175v-60h-434v66l342 397l-172 -3h-163v60h427v-67z" />
    <glyph glyph-name="braceleft" unicode="{" horiz-adv-x="332" 
d="M169 312q-19 -26 -55 -31q36 -5 55 -31t19 -70v-212q0 -42 18.5 -61t60.5 -19h37v-58h-52q-80 0 -110.5 36t-30.5 105v213q0 70 -62 70h-17v54h17q62 0 62 70v213q0 69 30.5 105t110.5 36h52v-58h-37q-42 0 -60.5 -19t-18.5 -61v-212q0 -44 -19 -70z" />
    <glyph glyph-name="bar" unicode="|" horiz-adv-x="244" 
d="M156 -164h-68v948h68v-948z" />
    <glyph glyph-name="braceright" unicode="}" horiz-adv-x="332" 
d="M300 308v-54h-17q-62 0 -62 -70v-213q0 -69 -30.5 -105t-110.5 -36h-52v58h37q42 0 60.5 19t18.5 61v212q0 44 19 70t55 31q-36 5 -55 31t-19 70v212q0 42 -18.5 61t-60.5 19h-37v58h52q80 0 110.5 -36t30.5 -105v-213q0 -70 62 -70h17z" />
    <glyph glyph-name="exclamdown" unicode="&#xa1;" horiz-adv-x="241" 
d="M82.5 442.5q-14.5 12.5 -14.5 36.5t14 36t38 12t38 -12t14 -36t-14 -36.5t-38 -12.5q-23 0 -37.5 12.5zM86 332h68l13 -517h-94z" />
    <glyph glyph-name="cent" unicode="&#xa2;" horiz-adv-x="540" 
d="M484 103q-70 -28 -144 -30l1 -80h-48l1 82q-113 11 -179 80t-66 185t66.5 185.5t178.5 79.5l-1 83h48l-1 -81q83 -2 145 -25l-8 -69q-24 12 -60.5 21.5t-75.5 9.5q-100 0 -154 -56t-54 -148q0 -93 54.5 -148.5t155.5 -55.5q66 0 134 34z" />
    <glyph glyph-name="sterling" unicode="&#xa3;" horiz-adv-x="578" 
d="M535 65v-65h-487v60q0 -4 31.5 11t56.5 49.5t25 95.5q0 37 -15 89h-92v56h72q-11 33 -17.5 62t-6.5 63q0 105 65.5 164t178.5 59q44 0 89.5 -10t79.5 -27l-9 -76q-31 18 -73 30.5t-80 12.5q-82 0 -124 -40.5t-42 -114.5q0 -32 7 -59.5t20 -63.5h249v-56h-230
q13 -42 13 -84q0 -67 -28.5 -105t-63.5 -51h381z" />
    <glyph glyph-name="currency" unicode="&#xa4;" horiz-adv-x="724" 
d="M570 203l100 -105l-35 -34l-97 101q-65 -62 -177 -62q-53 0 -98 15.5t-78 45.5l-95 -100l-36 34l100 103q-39 59 -39 148q0 87 38 147l-99 103l36 34l95 -99q33 30 78 45.5t98 15.5q112 0 177 -62l97 100l35 -34l-100 -105q37 -57 37 -145q0 -85 -37 -146zM492.5 209.5
q50.5 47.5 50.5 139.5t-50.5 139t-132.5 47q-80 0 -130 -47.5t-50 -138.5q0 -92 50 -139.5t130 -47.5q82 0 132.5 47.5z" />
    <glyph glyph-name="yen" unicode="&#xa5;" horiz-adv-x="620" 
d="M355 274h138v-47h-138v-62h138v-46h-138v-119h-88v119h-139v46h139v62h-139v47h139v1l-252 425h91l207 -355l206 355h88l-252 -425v-1z" />
    <glyph glyph-name="section" unicode="&#xa7;" horiz-adv-x="591" 
d="M526 -18q0 -74 -60.5 -113.5t-170.5 -39.5q-103 0 -221 43l7 80l22 -9q59 -24 100.5 -36.5t83.5 -12.5q68 0 107 25t39 67q0 30 -19.5 49.5t-50 31.5t-84.5 27l-40 12q-58 18 -97 36t-66 50t-27 82q0 83 82 156q-67 44 -67 118t60.5 113.5t170.5 39.5q103 0 221 -43
l-7 -80q-4 1 -8.5 3t-10.5 4q-56 23 -100 36.5t-87 13.5q-68 0 -107 -24.5t-39 -66.5q0 -30 19.5 -49.5t50 -31.5t84.5 -27l40 -12q58 -18 97 -36t66 -50t27 -82q0 -51 -26 -90.5t-56 -65.5q67 -44 67 -118zM161 217.5q37 -25.5 109 -47.5l27 -8q72 -20 105 -34
q64 54 64 115q0 44 -37 69.5t-109 47.5q-22 7 -29 8q-65 19 -103 34q-64 -55 -64 -115q0 -44 37 -69.5z" />
    <glyph glyph-name="dieresis" unicode="&#xa8;" horiz-adv-x="482" 
d="M104.5 622.5q-12.5 12.5 -12.5 35.5q0 47 49 47t49 -47q0 -48 -50 -48q-23 0 -35.5 12.5zM305.5 622.5q-12.5 12.5 -12.5 35.5q0 47 49 47t49 -47q0 -48 -50 -48q-23 0 -35.5 12.5z" />
    <glyph glyph-name="copyright" unicode="&#xa9;" horiz-adv-x="827" 
d="M229 37q-83 46 -130.5 127.5t-47.5 185.5t47.5 186t130 127.5t185.5 45.5q104 0 186.5 -45.5t129.5 -127.5t47 -186t-47.5 -185.5t-130 -127.5t-185.5 -46q-102 0 -185 46zM579.5 68.5q73.5 40.5 115 114t41.5 166.5q0 94 -42 167.5t-115 114.5t-164 41t-165 -41
t-116 -114.5t-42 -167.5t42 -167t115.5 -113.5t165.5 -40.5q91 0 164.5 40.5zM291 216q-53 49 -53 135t53.5 134.5t140.5 48.5q62 0 104 -18l-8 -46q-39 16 -89 16q-67 0 -102 -37t-35 -98q0 -62 35.5 -99t102.5 -37q48 0 90 20l8 -47q-47 -21 -107 -21q-87 0 -140 49z" />
    <glyph glyph-name="guillemotleft" unicode="&#xab;" horiz-adv-x="475" 
d="M228 482l-121 -222l121 -222h-67l-120 222l119 222h68zM309 260l121 -222h-67l-120 222l119 222h68z" />
    <glyph glyph-name="registered" unicode="&#xae;" horiz-adv-x="828" 
d="M600.5 663.5q82.5 -45.5 129.5 -127.5t47 -186t-47 -185.5t-129.5 -127.5t-185.5 -46t-186 46t-130.5 127.5t-47.5 185.5t47.5 186t130.5 127.5t186 45.5t185.5 -45.5zM580.5 65q73.5 42 115 116t41.5 168t-42 169t-115 117t-164 42t-165 -42t-116 -117t-42 -169
t42 -168.5t115.5 -116t165.5 -41.5q91 0 164.5 42zM539.5 356q-17.5 -26 -49.5 -37l63 -143h-53l-55 136h-1h-108v-136h-49v352h162q47 0 77.5 -31t30.5 -77q0 -38 -17.5 -64zM492 372.5q18 18.5 18 47.5q0 32 -18.5 49t-49.5 17h-105v-132h106q31 0 49 18.5z" />
    <glyph glyph-name="macron" unicode="&#xaf;" horiz-adv-x="504" 
d="M408 636h-312v54h312v-54z" />
    <glyph glyph-name="degree" unicode="&#xb0;" horiz-adv-x="409" 
d="M91.5 450q-45.5 41 -45.5 110t45.5 109.5t113.5 40.5q69 0 114 -40.5t45 -109.5t-45 -110t-114 -41q-68 0 -113.5 41zM280 483q30 29 30 77t-29.5 76.5t-76.5 28.5t-76 -28t-29 -77t29 -77.5t76 -28.5q46 0 76 29z" />
    <glyph glyph-name="plusminus" unicode="&#xb1;" 
d="M369 376h179v-58h-179v-159h-59v159h-179v58h179v160h59v-160zM548 52h-417v58h417v-58z" />
    <glyph glyph-name="acute" unicode="&#xb4;" horiz-adv-x="329" 
d="M156 600h-61l83 168h79z" />
    <glyph glyph-name="paragraph" unicode="&#xb6;" horiz-adv-x="555" 
d="M460 -88h-62v726h-99v-726h-63v375h-28q-86 2 -133 61t-47 148q0 64 27 110t71 70t96 24h238v-788z" />
    <glyph glyph-name="periodcentered" unicode="&#xb7;" horiz-adv-x="236" 
d="M77.5 262q-14.5 14 -14.5 38q0 23 14.5 37.5t39.5 14.5q26 0 40.5 -14.5t14.5 -37.5t-14.5 -37.5t-40.5 -14.5q-25 0 -39.5 14z" />
    <glyph glyph-name="cedilla" unicode="&#xb8;" horiz-adv-x="353" 
d="M251.5 -61.5q32.5 -19.5 32.5 -66.5q0 -49 -37 -71.5t-88 -22.5q-21 0 -45 3.5t-41 8.5l3 42q13 -5 35.5 -9t46.5 -4q27 0 49 12t22 41q0 51 -81 51q-19 0 -30 -1l29 98h46l-17 -64q43 2 75.5 -17.5z" />
    <glyph glyph-name="guillemotright" unicode="&#xbb;" horiz-adv-x="475" 
d="M113 482l119 -222l-119 -222h-68l122 222l-122 222h68zM434 260l-119 -222h-68l122 222l-122 222h68z" />
    <glyph glyph-name="questiondown" unicode="&#xbf;" horiz-adv-x="443" 
d="M218.5 443q-14.5 13 -14.5 36q0 24 14 36t38 12t38 -12t14 -36t-14 -36.5t-38 -12.5q-23 0 -37.5 13zM90 -147.5q-61 42.5 -61 126.5q0 41 14.5 70t35 48.5t54.5 44.5q30 23 47 38t29 37t12 50v65h74v-70q-1 -37 -15 -64.5t-33.5 -46.5t-50.5 -43q-43 -34 -63.5 -60
t-20.5 -65q0 -50 37.5 -79t96.5 -29q68 0 162 42l11 -67q-90 -40 -178 -40q-90 0 -151 42.5z" />
    <glyph glyph-name="multiply" unicode="&#xd7;" 
d="M340 379l155 155l43 -44l-154 -155l155 -156l-43 -43l-156 155l-154 -156l-44 44l155 156l-156 155l44 44z" />
    <glyph glyph-name="germandbls" unicode="&#xdf;" horiz-adv-x="620" 
d="M345.5 1.5q-45.5 10.5 -80.5 27.5l12 70q43 -24 72.5 -35.5t64.5 -11.5q51 0 73 24.5t22 64.5q0 39 -19 62t-57 49q-39 27 -58.5 51.5t-19.5 66.5q0 31 12.5 52t36.5 46q22 23 33 41t11 45q0 45 -35.5 66.5t-86.5 21.5q-70 0 -106 -39t-36 -99l-1 -504h-83v461h-97v59h97
q3 95 66.5 141t155.5 46q84 0 142 -36t58 -105q0 -35 -14 -59.5t-40 -52.5q-22 -25 -32 -41t-10 -37q0 -27 16 -45.5t50 -42.5q31 -22 50 -40t33 -47t14 -69q0 -65 -37 -103t-117 -38q-44 0 -89.5 10.5z" />
    <glyph glyph-name="divide" unicode="&#xf7;" 
d="M309.5 475q-11.5 11 -11.5 31q0 19 12 29.5t31 10.5q20 0 31 -10.5t11 -29.5q0 -20 -11.5 -31t-30.5 -11q-20 0 -31.5 11zM132 364h417v-58h-417v58zM309.5 137q-11.5 11 -11.5 31q0 19 12 29.5t31 10.5q20 0 31 -10.5t11 -29.5q0 -20 -11.5 -31t-30.5 -11
q-20 0 -31.5 11z" />
    <glyph glyph-name="dotlessi" unicode="&#x131;" horiz-adv-x="261" 
d="M183 0h-82v461h-98v59h180v-520z" />
    <glyph glyph-name="circumflex" unicode="&#x2c6;" horiz-adv-x="475" 
d="M323 600l-86 123l-84 -123h-74l117 161h82l119 -161h-74z" />
    <glyph glyph-name="caron" unicode="&#x2c7;" horiz-adv-x="475" 
d="M397 761l-119 -161h-82l-117 161h74l84 -123l86 123h74z" />
    <glyph glyph-name="breve" unicode="&#x2d8;" horiz-adv-x="467" 
d="M116.5 646.5q-40.5 36.5 -50.5 115.5l56 7q12 -57 35.5 -83.5t76.5 -27.5q53 0 76 26.5t35 84.5l56 -7q-10 -79 -50.5 -115.5t-116.5 -36.5q-77 0 -117.5 36.5z" />
    <glyph glyph-name="dotaccent" unicode="&#x2d9;" horiz-adv-x="266" 
d="M97.5 638q-12.5 11 -12.5 32t12.5 32t35.5 11q49 0 49 -43t-49 -43q-23 0 -35.5 11z" />
    <glyph glyph-name="ring" unicode="&#x2da;" horiz-adv-x="366" 
d="M107.5 624q-30.5 26 -30.5 74t30 74t77 26t77 -26t30 -74t-30.5 -74t-76.5 -26t-76.5 26zM225.5 652q17.5 16 17.5 46t-17.5 45.5t-42.5 15.5t-41.5 -15.5t-16.5 -45.5t17 -46t41 -16q25 0 42.5 16z" />
    <glyph glyph-name="ogonek" unicode="&#x2db;" horiz-adv-x="335" 
d="M104 -152.5q-34 19.5 -34 65.5q0 57 45.5 81.5t102.5 29.5l18 -24q-52 -8 -77 -21.5t-25 -42.5q0 -30 20.5 -41.5t44.5 -11.5q29 0 66 11l1 -56q-37 -10 -78 -10q-50 0 -84 19.5z" />
    <glyph glyph-name="tilde" unicode="&#x2dc;" horiz-adv-x="486" 
d="M276.5 620.5q-17.5 6.5 -40.5 17.5q-8 4 -22.5 10.5t-26 10.5t-22.5 4q-37 0 -57 -40l-32 14q14 42 39.5 63t59.5 21q32 0 76 -23l22 -11t26 -11t23 -4q36 0 56 41l32 -14q-27 -85 -99 -85q-17 0 -34.5 6.5z" />
    <glyph glyph-name="hungarumlaut" unicode="&#x2dd;" horiz-adv-x="497" 
d="M168 600h-62l70 168h78zM314 600h-62l70 168h78z" />
    <glyph glyph-name="gravecomb" unicode="&#x300;" horiz-adv-x="0" 
d="M-9 600h-62l-82 168h77z" />
    <glyph glyph-name="uni0326" unicode="&#x326;" horiz-adv-x="0" 
d="M-116 -163.5q-6 -34.5 -18 -75.5h-64q9 40 13 74.5t3 90.5h73q-1 -55 -7 -89.5z" />
    <glyph glyph-name="uni0400" unicode="&#x400;" horiz-adv-x="631" 
d="M585 631h-403v-255h348v-69h-348v-238h416v-69h-504v700h491v-69zM379 769h-59l-68 121h79z" />
    <glyph glyph-name="uni0401" unicode="&#x401;" horiz-adv-x="631" 
d="M585 631h-403v-255h348v-69h-348v-238h416v-69h-504v700h491v-69zM203 811q-12 12 -12 34q0 46 47 46t47 -46q0 -22 -12 -34t-36 -12q-22 0 -34 12zM409.5 811q-11.5 12 -11.5 34q0 46 46 46q47 0 47 -46q0 -22 -12 -34t-36 -12q-22 0 -33.5 12z" />
    <glyph glyph-name="uni0402" unicode="&#x402;" horiz-adv-x="830" 
d="M507.5 -2q-36.5 3 -57.5 8l4 71q18 -6 51 -10t58 -4q71 0 109.5 40.5t38.5 120.5q0 85 -52.5 125t-132.5 40q-61 0 -112.5 -15t-74.5 -31v-343h-88v631h-241v69h590v-69h-261v-216q34 15 87.5 28t112.5 13q115 0 186.5 -58.5t71.5 -167.5q0 -77 -29.5 -129.5t-81.5 -79
t-117 -26.5q-25 0 -61.5 3z" />
    <glyph glyph-name="uni0403" unicode="&#x403;" horiz-adv-x="588" 
d="M94 700h484v-69h-396v-631h-88v700zM342 769h-62l68 121h84z" />
    <glyph glyph-name="uni0404" unicode="&#x404;" horiz-adv-x="664" 
d="M631 28q-42 -17 -98 -27t-112 -10q-108 0 -192.5 43.5t-132.5 124.5t-48 190q0 110 49 191.5t134 125t193 43.5q54 0 108 -9t96 -26l-6 -77q-36 15 -87.5 27t-96.5 12q-129 0 -206.5 -69t-88.5 -185h349v-69h-348q11 -114 88.5 -181.5t205.5 -67.5q84 0 188 42z" />
    <glyph glyph-name="uni0405" unicode="&#x405;" horiz-adv-x="607" 
d="M165 10q-69 17 -115 39l12 80q52 -27 111 -46.5t132 -19.5q87 0 129.5 30.5t42.5 83.5q0 40 -22 64.5t-58 38.5t-103 32q-81 22 -128.5 41.5t-80 58.5t-32.5 104q0 95 68.5 144t182.5 49q63 0 126.5 -14t107.5 -34l-10 -78q-35 17 -91 36t-127 19q-79 0 -122.5 -29.5
t-43.5 -82.5q0 -42 25 -67.5t60 -38.5t97 -29q80 -21 129.5 -42t80.5 -59.5t31 -101.5q0 -96 -70 -145.5t-190 -49.5q-73 0 -142 17z" />
    <glyph glyph-name="uni0406" unicode="&#x406;" horiz-adv-x="275" 
d="M182 0h-88v700h88v-700z" />
    <glyph glyph-name="uni0407" unicode="&#x407;" horiz-adv-x="275" 
d="M182 0h-88v700h88v-700zM-1 811q-12 12 -12 34q0 46 47 46t47 -46q0 -22 -12 -34t-36 -12q-22 0 -34 12zM205.5 811q-11.5 12 -11.5 34q0 46 46 46q47 0 47 -46q0 -22 -12 -34t-36 -12q-22 0 -33.5 12z" />
    <glyph glyph-name="uni0408" unicode="&#x408;" horiz-adv-x="488" 
d="M401 207q0 -109 -63.5 -162.5t-168.5 -53.5q-76 0 -155 36l10 72q72 -37 141 -37q68 0 108 35t40 111v426h-195v66h283v-493z" />
    <glyph glyph-name="uni0409" unicode="&#x409;" horiz-adv-x="1080" 
d="M987.5 370.5q58.5 -57.5 58.5 -153.5q0 -65 -27 -114.5t-75.5 -76t-111.5 -26.5h-312v632h-282l-14 -332q-4 -105 -17.5 -169.5t-45.5 -99.5t-90 -35q-39 0 -69 7l2 70q25 -5 44 -5q40 0 58.5 25.5t24 70t9.5 136.5l16 400h452v-272h215q106 0 164.5 -57.5zM922.5 109
q37.5 41 37.5 107t-39 104.5t-108 38.5h-204v-291h208q68 0 105.5 41z" />
    <glyph glyph-name="uni040A" unicode="&#x40a;" horiz-adv-x="1099" 
d="M1006.5 370.5q58.5 -57.5 58.5 -153.5q0 -65 -27 -114.5t-75.5 -76t-111.5 -26.5h-312v311h-357v-311h-88v700h88v-319h357v319h88v-272h216q105 0 163.5 -57.5zM941 109q38 41 38 107t-39 104.5t-108 38.5h-205v-291h208q68 0 106 41z" />
    <glyph glyph-name="uni040B" unicode="&#x40b;" horiz-adv-x="845" 
d="M734.5 414q60.5 -55 60.5 -162v-252h-86v242q0 75 -40.5 117.5t-124.5 42.5q-70 0 -122 -16t-83 -35v-351h-88v631h-241v69h590v-69h-261v-204q34 16 93.5 29t134.5 13q107 0 167.5 -55z" />
    <glyph glyph-name="uni040C" unicode="&#x40c;" horiz-adv-x="644" 
d="M365 769h-62l68 121h84zM94 700h89l-1 -310h147l199 310h97l-221 -340l226 -360h-104l-194 316h-150v-316h-88v700z" />
    <glyph glyph-name="uni040D" unicode="&#x40d;" horiz-adv-x="763" 
d="M670 700l-1 -700h-83v383l1 193l-403 -576h-90l1 700h85l-2 -404l-2 -167l404 571h90zM426 769h-59l-68 121h79z" />
    <glyph glyph-name="uni040E" unicode="&#x40e;" horiz-adv-x="604" 
d="M601 700l-247 -558q-23 -48 -47 -79t-61.5 -49t-92.5 -18q-22 0 -48 4.5t-46 12.5l6 76q6 -2 20.5 -9t27.5 -10.5t24 -3.5q50 0 74 18.5t43 55.5l11 23l-254 537h93l215 -455l190 455h92zM148 893l57 5q22 -71 102 -71q78 0 103 71l56 -5q-24 -115 -159 -115t-159 115z
" />
    <glyph glyph-name="uni040F" unicode="&#x40f;" horiz-adv-x="751" 
d="M658 0h-247l-4 -170h-62l-5 170h-246v700h88v-632h388v632h88v-700z" />
    <glyph glyph-name="uni0410" unicode="&#x410;" horiz-adv-x="687" 
d="M518 180h-354l-70 -180h-88l282 704h111l281 -704h-92zM491 249l-149 380h-2l-149 -380h300z" />
    <glyph glyph-name="uni0411" unicode="&#x411;" horiz-adv-x="674" 
d="M94 700h492v-69h-405v-203h232q105 0 164 -58t59 -152q0 -66 -27 -115.5t-76 -76t-111 -26.5h-328v700zM404 68q69 0 107.5 40.5t38.5 106.5q0 67 -39.5 105.5t-110.5 38.5h-219v-291h223z" />
    <glyph glyph-name="uni0412" unicode="&#x412;" horiz-adv-x="682" 
d="M556.5 331.5q32.5 -21.5 53.5 -58.5t21 -87q0 -58 -26 -100t-72 -64t-103 -22h-336v700h306q94 0 149.5 -47t55.5 -134q0 -67 -36.5 -107t-79.5 -54q35 -5 67.5 -26.5zM180 388h216q58 0 91 33t33 87q0 58 -36 91t-89 33h-215v-244zM507.5 103q36.5 35 36.5 92
q0 54 -34 91t-102 37h-228v-255h235q56 0 92.5 35z" />
    <glyph glyph-name="uni0413" unicode="&#x413;" horiz-adv-x="588" 
d="M94 700h484v-69h-396v-631h-88v700z" />
    <glyph glyph-name="uni0414" unicode="&#x414;" horiz-adv-x="778" 
d="M748 68v-238h-69l-6 170h-593l-6 -170h-69v238h83q0 -15 20.5 48.5t37 204t16.5 379.5h489v-632h97zM563 641h-321q0 -207 -14 -334t-32.5 -189.5t-18.5 -49.5h386v573z" />
    <glyph glyph-name="uni0415" unicode="&#x415;" horiz-adv-x="631" 
d="M585 631h-403v-255h348v-69h-348v-238h416v-69h-504v700h491v-69z" />
    <glyph glyph-name="uni0416" unicode="&#x416;" horiz-adv-x="1002" 
d="M240 361l-219 339h96l197 -309h144v309h87v-309h143l197 309h97l-220 -339l226 -361h-105l-193 319h-145v-319h-87v319h-146l-192 -319h-106z" />
    <glyph glyph-name="uni0417" unicode="&#x417;" horiz-adv-x="585" 
d="M490.5 302q42.5 -45 42.5 -116q-1 -99 -77 -147t-207 -48q-130 0 -224 36l6 73q51 -18 99 -30t111 -12q93 0 148.5 33.5t55.5 104.5q0 68 -54 100t-147 32h-98v62h101q81 0 131.5 32t50.5 97q0 63 -47 93.5t-126 30.5q-55 0 -111.5 -12.5t-102.5 -30.5l-7 72
q40 16 104.5 26.5t125.5 10.5q116 0 183 -47t67 -136q1 -59 -37.5 -103.5t-103.5 -61.5q74 -14 116.5 -59z" />
    <glyph glyph-name="uni0418" unicode="&#x418;" horiz-adv-x="639" 
d="M607 700l-1 -700h-83v383l1 193l-403 -576h-90l1 700h85l-2 -404l-2 -167l404 571h90z" />
    <glyph glyph-name="uni0419" unicode="&#x419;" horiz-adv-x="763" 
d="M391 773q-79 0 -155 24l4 54q43 -12 77.5 -18t72.5 -6q40 0 74.5 6.5t76.5 17.5l4 -54q-74 -24 -154 -24zM670 700l-1 -700h-83v383l1 193l-403 -576h-90l1 700h85l-2 -404l-2 -167l404 571h90z" />
    <glyph glyph-name="uni041A" unicode="&#x41a;" horiz-adv-x="644" 
d="M94 700h89l-1 -310h147l199 310h97l-221 -340l226 -360h-104l-194 316h-150v-316h-88v700z" />
    <glyph glyph-name="uni041B" unicode="&#x41b;" horiz-adv-x="722" 
d="M48 68q40 0 58.5 25.5t24 70t9.5 136.5l16 400h473v-700h-88v632h-303l-14 -332q-4 -105 -17.5 -169.5t-45.5 -99.5t-90 -35q-39 0 -69 7l2 70q25 -5 44 -5z" />
    <glyph glyph-name="uni041C" unicode="&#x41c;" horiz-adv-x="929" 
d="M836 700v-700h-85v397l8 221l-253 -540h-81l-253 537l7 -218v-397h-85v700h125l249 -532l245 532h123z" />
    <glyph glyph-name="uni041D" unicode="&#x41d;" horiz-adv-x="759" 
d="M666 0h-88v311h-396v-311h-88v700h88v-319h396v319h88v-700z" />
    <glyph glyph-name="uni041E" unicode="&#x41e;" horiz-adv-x="806" 
d="M217 35.5q-80 44.5 -123.5 125.5t-43.5 188t44 189t124 126.5t185 44.5q106 0 186 -44.5t123.5 -126t43.5 -189.5q0 -107 -43 -188t-123 -125.5t-187 -44.5q-106 0 -186 44.5zM540.5 96q58.5 34 91 98.5t32.5 153.5t-32 154.5t-91 100.5t-137 35t-137 -34.5t-91.5 -100
t-32.5 -155.5q0 -89 32.5 -153.5t91.5 -98.5t137 -34t136.5 34z" />
    <glyph glyph-name="uni041F" unicode="&#x41f;" horiz-adv-x="754" 
d="M660 0h-88v631h-390v-631h-88v700h566v-700z" />
    <glyph glyph-name="uni0420" unicode="&#x420;" 
d="M94 700h323q70 0 122 -29.5t80 -81t28 -113.5q0 -64 -28.5 -115t-81 -80t-121.5 -29h-234v-252h-88v700zM399 321q70 0 113.5 44t43.5 111t-43.5 111t-113.5 44h-217v-310h217z" />
    <glyph glyph-name="uni0421" unicode="&#x421;" horiz-adv-x="663" 
d="M230.5 34.5q-84.5 43.5 -132.5 124.5t-48 190q0 110 49 191.5t134 125t193 43.5q54 0 108 -9t96 -26l-6 -77q-36 15 -87.5 27t-96.5 12q-92 0 -159 -36t-102 -101t-35 -150t35.5 -149.5t102 -100t158.5 -35.5q84 0 188 42l5 -78q-42 -17 -98 -27t-112 -10
q-108 0 -192.5 43.5z" />
    <glyph glyph-name="uni0422" unicode="&#x422;" horiz-adv-x="590" 
d="M580 631h-241v-631h-88v631h-241v69h570v-69z" />
    <glyph glyph-name="uni0423" unicode="&#x423;" horiz-adv-x="604" 
d="M601 700l-247 -558q-23 -48 -47 -79t-61.5 -49t-92.5 -18q-22 0 -48 4.5t-46 12.5l6 76q6 -2 20.5 -9t27.5 -10.5t24 -3.5q50 0 74 18.5t43 55.5l11 23l-254 537h93l215 -455l190 455h92z" />
    <glyph glyph-name="uni0424" unicode="&#x424;" horiz-adv-x="892" 
d="M403 6q-109 2 -189 45.5t-122.5 119.5t-42.5 177t43 178t123 120.5t188 46.5v86h85v-86q109 -2 189 -46t122.5 -121t42.5 -178t-42.5 -177.5t-122 -119.5t-189.5 -46v-88h-85v89zM403 624q-122 -4 -193 -78t-71 -198t70.5 -196.5t193.5 -76.5v549zM683.5 151
q70.5 73 70.5 197t-71 198t-194 78v-549q124 3 194.5 76z" />
    <glyph glyph-name="uni0425" unicode="&#x425;" horiz-adv-x="651" 
d="M531 0l-204 287l-208 -287h-106l256 341l-259 359h108l209 -289l208 289h102l-254 -344l259 -356h-111z" />
    <glyph glyph-name="uni0426" unicode="&#x426;" horiz-adv-x="779" 
d="M653 67h96v-237h-72l-3 170h-580v700h87v-631h385v631h87v-633z" />
    <glyph glyph-name="uni0427" unicode="&#x427;" horiz-adv-x="691" 
d="M598 700v-700h-87v302q-30 -28 -90 -54.5t-138 -26.5q-108 0 -168 55t-60 162v262h86v-252q0 -75 40.5 -117.5t125.5 -42.5q51 0 93.5 15t70.5 35t40 36v326h87z" />
    <glyph glyph-name="uni0428" unicode="&#x428;" horiz-adv-x="1074" 
d="M981 0h-887v700h87v-631h313v631h87v-631h313v631h87v-700z" />
    <glyph glyph-name="uni0429" unicode="&#x429;" horiz-adv-x="1107" 
d="M981 67h96v-237h-69l-6 170h-908v700h87v-631h313v631h87v-631h313v631h87v-633z" />
    <glyph glyph-name="uni042A" unicode="&#x42a;" horiz-adv-x="763" 
d="M670.5 370.5q58.5 -57.5 58.5 -153.5q0 -66 -27 -115t-75 -75.5t-111 -26.5h-328v631h-176v69h262v-272h233q105 0 163.5 -57.5zM605.5 109q37.5 41 37.5 107t-39 104.5t-108 38.5h-222v-291h226q68 0 105.5 41z" />
    <glyph glyph-name="uni042B" unicode="&#x42b;" horiz-adv-x="927" 
d="M576.5 370.5q58.5 -57.5 58.5 -153.5q0 -65 -27 -114.5t-75.5 -76t-110.5 -26.5h-328v700h86v-272h233q105 0 163.5 -57.5zM834 0h-86v700h86v-700zM511.5 109q37.5 41 37.5 107t-39 104.5t-108 38.5h-222v-291h226q68 0 105.5 41z" />
    <glyph glyph-name="uni042C" unicode="&#x42c;" horiz-adv-x="669" 
d="M94 700h86v-272h233q105 0 163.5 -57.5t58.5 -153.5q0 -65 -27 -114.5t-75.5 -76t-110.5 -26.5h-328v700zM406 68q68 0 105.5 41t37.5 107t-39 104.5t-108 38.5h-222v-291h226z" />
    <glyph glyph-name="uni042D" unicode="&#x42d;" horiz-adv-x="676" 
d="M449.5 666.5q83.5 -42.5 130.5 -123.5t47 -194q0 -111 -48 -192t-133.5 -123.5t-196.5 -42.5q-62 0 -119 10t-100 27l4 78q104 -42 200 -42q133 0 210 66t87 183h-347v69h348q-9 119 -84 186.5t-205 67.5q-55 0 -105 -11.5t-88 -27.5l-5 76q96 36 212 36
q109 0 192.5 -42.5z" />
    <glyph glyph-name="uni042E" unicode="&#x42e;" horiz-adv-x="1038" 
d="M466.5 30.5q-75.5 39.5 -120.5 112t-52 170.5h-114v-313h-86v700h86v-318h113q7 99 52 173t121 114t174 40q104 0 183.5 -44.5t122.5 -126t43 -189.5q0 -107 -43 -188t-122 -125.5t-184 -44.5q-98 0 -173.5 39.5zM775 95q58 34 90 99t32 154q0 90 -32 155.5t-90.5 100.5
t-134.5 35q-75 0 -133 -35t-90.5 -100.5t-32.5 -155.5q0 -89 32.5 -154t90.5 -99t133 -34q77 0 135 34z" />
    <glyph glyph-name="uni042F" unicode="&#x42f;" horiz-adv-x="695" 
d="M601 700v-700h-88v280h-225l-134 -280h-97l147 285q-72 19 -113.5 73.5t-41.5 129.5q0 59 25.5 107.5t74 76.5t113.5 28h339zM514 631h-235q-64 0 -102 -39.5t-38 -100.5q0 -62 38 -102.5t102 -40.5h235v283z" />
    <glyph glyph-name="uni0430" unicode="&#x430;" horiz-adv-x="587" 
d="M588 5q-45 -9 -73 -9q-44 0 -70.5 16.5t-26.5 53.5v5q-28 -36 -77.5 -57t-117.5 -21q-89 0 -139 39t-50 118q0 87 61.5 123t177.5 36q56 0 140 -8v58q0 55 -33 79.5t-104 24.5q-42 0 -96 -9.5t-97 -23.5l-5 70q102 27 206 27q109 0 160 -37t51 -131v-252q0 -21 6.5 -30
t14 -10.5t21.5 -1.5q7 0 24 5t26 7zM364.5 89q48.5 38 48.5 101v59q-72 8 -129 8q-84 0 -125 -24.5t-41 -79.5q0 -54 35 -78t90 -24q73 0 121.5 38z" />
    <glyph glyph-name="uni0431" unicode="&#x431;" horiz-adv-x="619" 
d="M471.5 462.5q51.5 -33.5 76.5 -89.5t25 -125q0 -73 -27.5 -131t-84 -91.5t-139.5 -33.5q-121 0 -186.5 70.5t-66.5 191.5l-1 171q0 107 38 164.5t90 78.5t126 34q67 11 95 19t68 29l15 -70q-32 -12 -65 -22.5t-101 -21.5q-62 -11 -99 -24.5t-65.5 -57t-28.5 -128.5v-46
q25 54 77.5 85t125.5 31q76 0 127.5 -33.5zM444 105q44 50 44 141q0 90 -44 139.5t-123 49.5q-78 0 -122.5 -49t-44.5 -141q0 -91 44 -140.5t123 -49.5t123 50z" />
    <glyph glyph-name="uni0432" unicode="&#x432;" horiz-adv-x="576" 
d="M496 230q35 -32 35 -91q0 -64 -43.5 -101.5t-114.5 -37.5h-295v520h278q68 0 109.5 -35.5t41.5 -98.5q0 -49 -27.5 -77.5t-66.5 -39.5q48 -7 83 -39zM160 290h177q41 0 65.5 24t24.5 62q0 41 -26 65.5t-67 24.5h-174v-176zM419.5 79.5q26.5 25.5 26.5 67.5
q0 41 -26.5 66.5t-73.5 25.5h-186v-185h190q43 0 69.5 25.5z" />
    <glyph glyph-name="uni0433" unicode="&#x433;" horiz-adv-x="451" 
d="M445 464h-284l-1 -464h-82v520h367v-56z" />
    <glyph glyph-name="uni0434" unicode="&#x434;" horiz-adv-x="631" 
d="M606 56v-176h-67l-4 120h-460l-5 -120h-65v176h63q26 28 49.5 132t28.5 332h378v-464h82zM441 464h-219q-5 -191 -24.5 -284t-39.5 -124h283v408z" />
    <glyph glyph-name="uni0435" unicode="&#x435;" horiz-adv-x="589" 
d="M546 249.5q-1 -11.5 -2 -16.5h-415q1 -86 56.5 -132.5t148.5 -46.5q44 0 94 13t91 33l5 -70q-92 -37 -198 -37q-135 0 -208 71t-73 195q0 79 32 140t91.5 94.5t140.5 33.5q75 0 129 -32t81.5 -89t27.5 -131q0 -14 -1 -25.5zM470 287q0 81 -42.5 130t-115.5 49
q-78 0 -125.5 -45.5t-55.5 -133.5h339z" />
    <glyph glyph-name="uni0436" unicode="&#x436;" horiz-adv-x="832" 
d="M178 267l-152 253h92l127 -224h130v224h82v-224h130l128 224h91l-152 -254l158 -266h-94l-129 229h-132v-229h-82v229h-132l-128 -229h-95z" />
    <glyph glyph-name="uni0437" unicode="&#x437;" horiz-adv-x="490" 
d="M415 221q28 -33 28 -79q0 -78 -61 -113.5t-159 -35.5q-101 0 -194 35l6 69q47 -19 86.5 -30t88.5 -11q149 0 149 95q0 84 -141 86h-84v53h84q131 0 131 88q0 86 -133 86q-39 0 -78.5 -8.5t-83.5 -21.5l-8 65q91 28 189 28q92 0 145 -34.5t53 -101.5q1 -97 -100 -126
q54 -11 82 -44z" />
    <glyph glyph-name="uni0438" unicode="&#x438;" horiz-adv-x="619" 
d="M541 0h-82v257l3 155h-2l-297 -412h-85v520h82v-273l-2 -135h1l298 408h84v-520z" />
    <glyph glyph-name="uni0439" unicode="&#x439;" horiz-adv-x="619" 
d="M310 600q-69 0 -132 19l3 50q66 -19 129 -19q61 0 129 19l3 -50q-63 -19 -132 -19zM541 0h-82v257l3 155h-2l-297 -412h-85v520h82v-273l-2 -135h1l298 408h84v-520z" />
    <glyph glyph-name="uni043A" unicode="&#x43a;" horiz-adv-x="541" 
d="M78 520h82v-224h130l133 224h91l-157 -254l164 -266h-95l-134 229l-132 1v-230h-82v520z" />
    <glyph glyph-name="uni043B" unicode="&#x43b;" horiz-adv-x="577" 
d="M4 2l1 66q14 -5 29 -5q27 0 40.5 11t19.5 37.5t10 79.5l20 328h375v-519h-82v464h-219l-15 -280q-4 -70 -18.5 -111t-42 -59t-73.5 -18q-17 0 -45 6z" />
    <glyph glyph-name="uni043C" unicode="&#x43c;" horiz-adv-x="757" 
d="M678 520v-520h-81v234q0 103 4 187h-2l-189 -376h-71l-190 377h-2q3 -62 3 -183v-239h-72v520h107l193 -390l194 390h106z" />
    <glyph glyph-name="uni043D" unicode="&#x43d;" horiz-adv-x="616" 
d="M538 0h-82v235h-296v-235h-82v520h82v-229h296v229h82v-520z" />
    <glyph glyph-name="uni043E" unicode="&#x43e;" horiz-adv-x="626" 
d="M173.5 24q-60.5 32 -94.5 93t-34 143t34 142.5t94.5 92.5t139.5 32t139.5 -32.5t94.5 -92.5t34 -142t-34 -143t-94.5 -93t-139.5 -32t-139.5 32zM446.5 110q50.5 54 50.5 149q0 96 -50.5 150.5t-134.5 54.5t-134 -54.5t-50 -150.5q0 -95 50 -149t134 -54t134.5 54z" />
    <glyph glyph-name="uni043F" unicode="&#x43f;" horiz-adv-x="617" 
d="M538 0h-82v464h-296v-464h-82v520h460v-520z" />
    <glyph glyph-name="uni0440" unicode="&#x440;" horiz-adv-x="639" 
d="M485 491.5q54 -35.5 81.5 -95.5t27.5 -135q0 -76 -27.5 -137t-81.5 -96t-130 -35q-65 0 -115.5 24t-79.5 66v-253h-82v690h71l7 -88q31 48 83.5 71.5t115.5 23.5q76 0 130 -35.5zM463 111q47 55 47 150q0 93 -47 148t-128 55t-128.5 -55.5t-47.5 -147.5t47 -148.5
t128 -56.5q82 0 129 55z" />
    <glyph glyph-name="uni0441" unicode="&#x441;" horiz-adv-x="515" 
d="M180.5 24.5q-64.5 31.5 -100 91.5t-35.5 144t35.5 144t99.5 91.5t148 31.5q40 0 81 -6.5t72 -18.5l-8 -69q-24 12 -60.5 21.5t-75.5 9.5q-100 0 -154 -56t-54 -148q0 -93 54.5 -148.5t155.5 -55.5q66 0 134 34l7 -67q-74 -30 -151 -30q-84 0 -148.5 31.5z" />
    <glyph glyph-name="uni0442" unicode="&#x442;" horiz-adv-x="471" 
d="M464 464h-187v-464h-82v464h-188v56h457v-56z" />
    <glyph glyph-name="uni0443" unicode="&#x443;" horiz-adv-x="534" 
d="M521 520l-268 -690h-85l65 162l-220 528h86l176 -443l165 443h81z" />
    <glyph glyph-name="uni0444" unicode="&#x444;" horiz-adv-x="747" 
d="M334 -10q-133 1 -210.5 72t-77.5 198q0 128 77 198.5t211 71.5v202h80v-202q134 -1 211 -71.5t77 -198.5q0 -127 -77.5 -198t-210.5 -72v-160h-80v160zM334 468q-97 0 -151.5 -54t-54.5 -155q0 -99 54.5 -153t151.5 -54v416zM565.5 106q54.5 54 54.5 153q0 101 -54 155
t-152 54v-416q97 0 151.5 54z" />
    <glyph glyph-name="uni0445" unicode="&#x445;" horiz-adv-x="522" 
d="M414 0l-153 213l-157 -213h-88l192 258l-189 262h93l150 -204l153 204h86l-188 -252l194 -268h-93z" />
    <glyph glyph-name="uni0446" unicode="&#x446;" horiz-adv-x="643" 
d="M536 57h82v-177h-68l-2 120h-470v520h82v-465h294v465h82v-463z" />
    <glyph glyph-name="uni0447" unicode="&#x447;" horiz-adv-x="571" 
d="M493 520v-520h-82v210q-33 -18 -81.5 -34t-104.5 -16q-84 0 -133 46.5t-49 134.5v179h81v-170q0 -61 30 -95t93 -34q50 0 96.5 16.5t67.5 30.5v252h82z" />
    <glyph glyph-name="uni0448" unicode="&#x448;" horiz-adv-x="909" 
d="M831 0h-753v520h82v-465h253v465h82v-465h254v465h82v-520z" />
    <glyph glyph-name="uni0449" unicode="&#x449;" horiz-adv-x="939" 
d="M914 -120h-66l-5 120h-765v520h82v-465h253v465h82v-465h254v465h82v-463h83v-177z" />
    <glyph glyph-name="uni044A" unicode="&#x44a;" horiz-adv-x="640" 
d="M565.5 290q45.5 -44 45.5 -121t-44.5 -123t-123.5 -46h-278v464h-158v56h240v-186h197q76 0 121.5 -44zM500 84.5q30 29.5 30 83.5q0 53 -29.5 82t-81.5 29h-172v-224h171q52 0 82 29.5z" />
    <glyph glyph-name="uni044B" unicode="&#x44b;" horiz-adv-x="789" 
d="M479 289.5q46 -44.5 46 -120.5q0 -77 -45 -123t-124 -46h-278v520h82v-186h198q75 0 121 -44.5zM628 0v520h82v-520h-82zM413 84.5q30 29.5 30 83.5q0 53 -29.5 82t-81.5 29h-172v-224h171q52 0 82 29.5z" />
    <glyph glyph-name="uni044C" unicode="&#x44c;" horiz-adv-x="554" 
d="M479 289.5q46 -44.5 46 -120.5q0 -77 -45 -123t-124 -46h-278v520h82v-186h198q75 0 121 -44.5zM413 84.5q30 29.5 30 83.5q0 53 -29.5 82t-81.5 29h-172v-224h171q52 0 82 29.5z" />
    <glyph glyph-name="uni044D" unicode="&#x44d;" horiz-adv-x="531" 
d="M409.5 458.5q76.5 -68.5 76.5 -197.5t-77.5 -198.5t-210.5 -69.5q-94 0 -166 31l6 65q34 -15 68.5 -24.5t80.5 -9.5q98 0 153 47.5t62 134.5h-256v53h256q-8 83 -62 128.5t-151 45.5q-43 0 -74.5 -8.5t-67.5 -22.5l-7 66q74 28 160 28q133 0 209.5 -68.5z" />
    <glyph glyph-name="uni044E" unicode="&#x44e;" horiz-adv-x="813" 
d="M372 21.5q-58 28.5 -93 83t-40 130.5h-79v-235h-82v520h82v-230h79q9 112 81.5 174.5t182.5 62.5q78 0 138 -32t93.5 -92.5t33.5 -142.5t-34 -142.5t-94 -92.5t-137 -32q-73 0 -131 28.5zM635 110q50 54 50 149q0 96 -50 150.5t-132 54.5t-132.5 -54.5t-50.5 -150.5
q0 -95 50 -149t133 -54q82 0 132 54z" />
    <glyph glyph-name="uni044F" unicode="&#x44f;" horiz-adv-x="569" 
d="M490 520v-520h-82v200h-172l-105 -200h-90l116 206q-50 14 -79.5 56.5t-29.5 100.5q0 69 43.5 113t115.5 44h283zM408 465h-173q-49 0 -78.5 -27t-29.5 -75q0 -49 29 -79t74 -30h178v211z" />
    <glyph glyph-name="uni0450" unicode="&#x450;" horiz-adv-x="589" 
d="M546 249.5q-1 -11.5 -2 -16.5h-415q1 -86 56.5 -132.5t148.5 -46.5q44 0 94 13t91 33l5 -70q-92 -37 -198 -37q-135 0 -208 71t-73 195q0 79 32 140t91.5 94.5t140.5 33.5q75 0 129 -32t81.5 -89t27.5 -131q0 -14 -1 -25.5zM470 287q0 81 -42.5 130t-115.5 49
q-78 0 -125.5 -45.5t-55.5 -133.5h339zM354 600h-62l-82 168h77z" />
    <glyph glyph-name="uni0451" unicode="&#x451;" horiz-adv-x="589" 
d="M546 249.5q-1 -11.5 -2 -16.5h-415q1 -86 56.5 -132.5t148.5 -46.5q44 0 94 13t91 33l5 -70q-92 -37 -198 -37q-135 0 -208 71t-73 195q0 79 32 140t91.5 94.5t140.5 33.5q75 0 129 -32t81.5 -89t27.5 -131q0 -14 -1 -25.5zM470 287q0 81 -42.5 130t-115.5 49
q-78 0 -125.5 -45.5t-55.5 -133.5h339zM173.5 622.5q-12.5 12.5 -12.5 35.5q0 47 49 47t49 -47q0 -48 -50 -48q-23 0 -35.5 12.5zM374.5 622.5q-12.5 12.5 -12.5 35.5q0 47 49 47t49 -47q0 -48 -50 -48q-23 0 -35.5 12.5z" />
    <glyph glyph-name="uni0452" unicode="&#x452;" horiz-adv-x="620" 
d="M474 483.5q40 -23.5 55 -68.5t17 -123q1 -32 1 -108q0 -84 -3 -121q-7 -98 -45 -155.5t-132 -79.5l-40 68q78 25 106.5 63t31.5 101q1 12 1 37l-1 84v61q0 37 -1 53q-2 54 -12.5 85.5t-38.5 47.5t-81 16q-79 0 -167 -57l3 -387h-82v602h-84v40h84v90h83v-90h229v-40h-229
l-3 -145q35 21 84 35.5t107 14.5q77 0 117 -23.5z" />
    <glyph glyph-name="uni0453" unicode="&#x453;" horiz-adv-x="451" 
d="M445 464h-284l-1 -464h-82v520h367v-56zM281 600h-61l83 168h79z" />
    <glyph glyph-name="uni0454" unicode="&#x454;" horiz-adv-x="516" 
d="M473 90l7 -67q-74 -30 -151 -30q-84 0 -148.5 31.5t-100 91.5t-35.5 144t35.5 144t99.5 91.5t148 31.5q40 0 81 -6.5t72 -18.5l-8 -69q-24 12 -60.5 21.5t-75.5 9.5q-91 0 -144.5 -47t-61.5 -127h253v-53h-254q7 -83 61 -132t148 -49q66 0 134 34z" />
    <glyph glyph-name="uni0455" unicode="&#x455;" horiz-adv-x="489" 
d="M135.5 3.5q-51.5 10.5 -89.5 25.5l5 68q45 -19 89 -31.5t98 -12.5q65 0 96.5 21.5t31.5 59.5q0 28 -15 44t-43 26t-88 26q-56 15 -90.5 29t-58.5 43.5t-24 78.5q0 72 53 109t145 37q48 0 97.5 -9t84.5 -23l-4 -67q-40 16 -81 28t-88 12q-61 0 -91.5 -21.5t-30.5 -59.5
q0 -27 14.5 -43t38 -25t67.5 -20l22 -6q57 -15 92.5 -30t60 -44.5t24.5 -77.5q0 -74 -56 -111t-150 -37q-58 0 -109.5 10.5z" />
    <glyph glyph-name="uni0456" unicode="&#x456;" horiz-adv-x="261" 
d="M99 620q-13 12 -13 35q0 24 13.5 36t37.5 12t37.5 -12t13.5 -36q0 -47 -52 -47q-24 0 -37 12zM101 461h-98v59h180v-520h-82v461z" />
    <glyph glyph-name="uni0457" unicode="&#x457;" horiz-adv-x="261" 
d="M-21.5 622.5q-12.5 12.5 -12.5 35.5q0 47 49 47t49 -47q0 -48 -50 -48q-23 0 -35.5 12.5zM179.5 622.5q-12.5 12.5 -12.5 35.5q0 47 49 47t49 -47q0 -48 -50 -48q-23 0 -35.5 12.5zM183 0h-82v461h-98v59h180v-520z" />
    <glyph glyph-name="uni0458" unicode="&#x458;" horiz-adv-x="262" 
d="M97 620q-13 12 -13 35q0 24 13.5 36t37.5 12t37.5 -12t13.5 -36q0 -47 -52 -47q-24 0 -37 12zM-43 -161l2 61q12 -5 31.5 -8t36.5 -3q36 0 55 16t19 55v501h-97v59h179v-562q0 -69 -39.5 -99.5t-102.5 -30.5q-51 0 -84 11z" />
    <glyph glyph-name="uni0459" unicode="&#x459;" horiz-adv-x="876" 
d="M4 2l1 63q16 -3 28 -3q27 0 40.5 11.5t20 38t10.5 79.5l20 328l373 1v-187h183q76 0 121.5 -44t45.5 -120q0 -77 -45 -123t-123 -46h-264v464h-217l-15 -280q-4 -70 -18.5 -111t-42 -59t-73.5 -18q-17 0 -45 6zM654 55q52 0 82 29.5t30 83.5q0 52 -30 81t-82 29h-157
v-223h157z" />
    <glyph glyph-name="uni045A" unicode="&#x45a;" horiz-adv-x="897" 
d="M821 289.5q46 -44.5 46 -120.5q0 -77 -45 -123t-124 -46h-264v235h-274v-235h-82v520h82v-229h274v229h83v-186h183q75 0 121 -44.5zM756 84.5q30 29.5 30 83.5q0 53 -30 82t-82 29h-157v-224h157q52 0 82 29.5z" />
    <glyph glyph-name="uni045B" unicode="&#x45b;" horiz-adv-x="591" 
d="M465 181v61q0 37 -1 53q-2 54 -12.5 85.5t-38.5 47.5t-81 16q-76 0 -164 -57v-387h-82v602h-84v40h84v90h83v-90h229v-40h-229l-3 -145q35 21 84 35.5t107 14.5q77 0 117 -23.5t55 -68.5t17 -123q1 -32 1 -108v-184h-82v181z" />
    <glyph glyph-name="uni045C" unicode="&#x45c;" horiz-adv-x="536" 
d="M301 600h-61l83 168h79zM78 520h82v-224h130l133 224h91l-157 -254l164 -266h-95l-134 229l-132 1v-230h-82v520z" />
    <glyph glyph-name="uni045D" unicode="&#x45d;" horiz-adv-x="619" 
d="M347 600h-62l-82 168h77zM541 0h-82v257l3 152h-2l-297 -409h-85v520h82v-273l-2 -132h1l298 405h84v-520z" />
    <glyph glyph-name="uni045E" unicode="&#x45e;" horiz-adv-x="534" 
d="M521 520l-268 -690h-85l65 162l-220 528h86l176 -443l165 443h81zM154.5 646.5q-40.5 36.5 -50.5 115.5l56 7q12 -57 35.5 -83.5t76.5 -27.5q53 0 76 26.5t35 84.5l56 -7q-10 -79 -50.5 -115.5t-116.5 -36.5q-77 0 -117.5 36.5z" />
    <glyph glyph-name="uni045F" unicode="&#x45f;" horiz-adv-x="615" 
d="M536 0h-193l-3 -133h-65l-3 133h-194v520h82v-464h294v464h82v-520z" />
    <glyph glyph-name="uni0490" unicode="&#x490;" horiz-adv-x="578" 
d="M568 631h-386v-631h-88v700h402l3 117h69v-186z" />
    <glyph glyph-name="uni0491" unicode="&#x491;" horiz-adv-x="443" 
d="M438 464h-277l-1 -464h-82v520h292l7 109h61v-165z" />
    <glyph glyph-name="uni04E2" unicode="&#x4e2;" horiz-adv-x="763" 
d="M670 700l-1 -700h-83v383l1 193l-403 -576h-90l1 700h85l-2 -404l-2 -167l404 571h90zM538 816h-312v54h312v-54z" />
    <glyph glyph-name="uni04E3" unicode="&#x4e3;" horiz-adv-x="611" 
d="M533 520v-520h-72l-6 94q-28 -47 -76.5 -74t-116.5 -27q-88 0 -139 49t-51 152v326h82v-319q0 -71 34.5 -108t97.5 -37q55 0 92.5 27t55 68.5t17.5 85.5v283h82zM459 636h-312v54h312v-54z" />
    <glyph glyph-name="uni04EE" unicode="&#x4ee;" horiz-adv-x="604" 
d="M601 700l-247 -558q-23 -48 -47 -79t-61.5 -49t-92.5 -18q-22 0 -48 4.5t-46 12.5l6 76q6 -2 20.5 -9t27.5 -10.5t24 -3.5q50 0 74 18.5t43 55.5l11 23l-254 537h93l215 -455l190 455h92zM473 816h-312v54h312v-54z" />
    <glyph glyph-name="uni04EF" unicode="&#x4ef;" horiz-adv-x="534" 
d="M521 520l-268 -690h-85l65 162l-220 528h86l176 -443l165 443h81zM428 636h-312v54h312v-54z" />
    <glyph glyph-name="uni1E9E" unicode="&#x1e9e;" horiz-adv-x="734" 
d="M661.5 226q21.5 -30 21.5 -85q0 -75 -48.5 -113t-143.5 -38q-93 0 -201 42l12 76q49 -28 89.5 -42t84.5 -14q63 0 94 24.5t31 69.5q0 33 -16 55t-48 48q-4 3 -30.5 25.5t-40.5 53t-14 67.5q0 50 24 96.5t67 85.5q-34 31 -81.5 48t-97.5 17q-91 0 -137.5 -54t-46.5 -145
l-1 -442l-85 -1v442q-1 129 70 198.5t196 69.5q80 0 157.5 -30.5t137.5 -95.5q-62 -46 -96 -90.5t-34 -91.5q0 -28 10 -48.5t23.5 -33t41.5 -34.5q40 -30 61.5 -60z" />
    <glyph glyph-name="endash" unicode="&#x2013;" horiz-adv-x="597" 
d="M529 237h-461v62h461v-62z" />
    <glyph glyph-name="emdash" unicode="&#x2014;" horiz-adv-x="893" 
d="M825 237h-757v62h757v-62z" />
    <glyph glyph-name="quoteleft" unicode="&#x2018;" horiz-adv-x="217" 
d="M150.5 564q10.5 -11 10.5 -29q0 -20 -13.5 -33t-35.5 -13q-27 0 -44.5 22t-17.5 60q0 83 93 129l17 -28q-66 -37 -66 -96q0 -7 2 -19q5 18 25 18q19 0 29.5 -11z" />
    <glyph glyph-name="quoteright" unicode="&#x2019;" horiz-adv-x="216" 
d="M152 677.5q18 -22.5 18 -59.5q0 -82 -93 -129l-17 28q29 16 47.5 40t18.5 57q0 10 -3 19q-4 -20 -24 -20q-19 0 -29.5 11.5t-10.5 29.5q0 21 13.5 33.5t35.5 12.5q26 0 44 -22.5z" />
    <glyph glyph-name="quotesinglbase" unicode="&#x201a;" horiz-adv-x="224" 
d="M150 64.5q18 -22.5 18 -59.5q0 -44 -25.5 -76t-67.5 -53l-17 28q29 16 47.5 40t18.5 56q0 6 -2 20q-5 -20 -25 -20q-19 0 -29.5 11t-10.5 30q0 20 13.5 33t35.5 13q26 0 44 -22.5z" />
    <glyph glyph-name="quotedblleft" unicode="&#x201c;" horiz-adv-x="384" 
d="M150.5 564q10.5 -11 10.5 -29q0 -20 -13.5 -33t-35.5 -13q-27 0 -44.5 22t-17.5 60q0 83 93 129l17 -28q-66 -37 -66 -96q0 -7 2 -19q6 18 25 18t29.5 -11zM317.5 564q10.5 -11 10.5 -29q0 -20 -13.5 -33t-35.5 -13q-27 0 -44.5 22t-17.5 60q0 83 93 129l17 -28
q-66 -37 -66 -96q0 -7 2 -19q6 18 25 18t29.5 -11z" />
    <glyph glyph-name="quotedblright" unicode="&#x201d;" horiz-adv-x="382" 
d="M152 677.5q18 -22.5 18 -59.5q0 -82 -93 -129l-17 28q29 16 47.5 40t18.5 57q0 7 -2 19q-6 -20 -25 -20t-29.5 11.5t-10.5 29.5q0 20 13.5 33t35.5 13q26 0 44 -22.5zM318 677.5q18 -22.5 18 -59.5q0 -82 -93 -129l-17 28q29 16 47.5 40t18.5 56q0 6 -2 20
q-6 -20 -25 -20t-29.5 11.5t-10.5 29.5q0 20 13.5 33t35.5 13q26 0 44 -22.5z" />
    <glyph glyph-name="quotedblbase" unicode="&#x201e;" horiz-adv-x="389" 
d="M150.5 65.5q17.5 -21.5 17.5 -59.5q0 -44 -25.5 -77t-67.5 -53l-17 28q29 16 47.5 40t18.5 57q0 7 -2 19q-6 -20 -25 -20t-29.5 11t-10.5 30q0 20 13.5 33t35.5 13q27 0 44.5 -21.5zM315.5 65.5q17.5 -21.5 17.5 -59.5q0 -44 -25.5 -77t-67.5 -53l-17 28q29 16 47.5 40
t18.5 57q0 7 -2 19q-6 -20 -25 -20t-29.5 11t-10.5 30q0 20 13.5 33t35.5 13q27 0 44.5 -21.5z" />
    <glyph glyph-name="dagger" unicode="&#x2020;" horiz-adv-x="401" 
d="M340 557l-114 6l7 -264h-65l6 264l-114 -6v58l114 -5l-7 132h66l-7 -133l114 6v-58z" />
    <glyph glyph-name="daggerdbl" unicode="&#x2021;" horiz-adv-x="401" 
d="M227 620l113 6v-58l-113 6l3 -84l-1 -85l111 6v-58l-113 6l6 -142h-65l5 142l-113 -6v58l111 -6l-1 85l3 84l-113 -6v58l114 -6l-7 122h66z" />
    <glyph glyph-name="bullet" unicode="&#x2022;" horiz-adv-x="349" 
d="M111 284q-25 23 -25 63t25 63t64 23q38 0 63 -22.5t25 -63.5t-25 -63.5t-63 -22.5q-39 0 -64 23z" />
    <glyph glyph-name="ellipsis" unicode="&#x2026;" horiz-adv-x="715" 
d="M70.5 4.5q-14.5 13.5 -14.5 38.5q0 23 15 37.5t39 14.5q25 0 40 -14.5t15 -37.5q0 -25 -15 -38.5t-40 -13.5t-39.5 13.5zM317.5 4.5q-14.5 13.5 -14.5 38.5q0 23 15 37.5t39 14.5q25 0 40 -14.5t15 -37.5q0 -25 -15 -38.5t-40 -13.5t-39.5 13.5zM564.5 4.5
q-14.5 13.5 -14.5 38.5q0 23 15 37.5t39 14.5q25 0 40 -14.5t15 -37.5q0 -25 -15 -38.5t-40 -13.5t-39.5 13.5z" />
    <glyph glyph-name="perthousand" unicode="&#x2030;" horiz-adv-x="1186" 
d="M596 730h83l-491 -760h-83zM74.5 420q-43.5 46 -43.5 120q0 77 44 124t115 47t114.5 -46.5t43.5 -123.5q0 -75 -43.5 -121t-116.5 -46q-70 0 -113.5 46zM253 462q25 30 25 79q0 51 -25 81.5t-64 30.5q-40 0 -65.5 -31.5t-25.5 -80.5t26 -79t65 -30t64 30zM483.5 37
q-43.5 46 -43.5 120q0 77 44.5 124t115.5 47t114 -46.5t43 -122.5q0 -75 -43.5 -121.5t-115.5 -46.5q-71 0 -114.5 46zM884.5 37q-43.5 46 -43.5 120q0 77 44.5 124t115.5 47t114 -46.5t43 -122.5q0 -75 -43.5 -121.5t-115.5 -46.5q-71 0 -114.5 46zM664 79q25 30 25 80
t-25 80.5t-64 30.5q-40 0 -65.5 -31t-25.5 -80q0 -50 26 -80t65 -30t64 30zM1065 79q25 30 25 80t-25 80.5t-64 30.5q-40 0 -65.5 -31t-25.5 -80q0 -50 26 -80t65 -30t64 30z" />
    <glyph glyph-name="guilsinglleft" unicode="&#x2039;" horiz-adv-x="274" 
d="M107 260l121 -222h-67l-120 222l119 222h68z" />
    <glyph glyph-name="guilsinglright" unicode="&#x203a;" horiz-adv-x="274" 
d="M232 260l-119 -222h-68l122 222l-122 222h68z" />
    <glyph glyph-name="Euro" unicode="&#x20ac;" horiz-adv-x="710" 
d="M304 582.5q-69 -55.5 -90 -151.5h335l-15 -40h-326q-2 -28 -2 -42q0 -15 2 -41h295l-15 -40h-274q21 -97 89 -151.5t174 -54.5q44 0 76.5 8.5t78.5 26.5l1 -77q-41 -15 -79.5 -22t-88.5 -7q-137 0 -229.5 73.5t-115.5 203.5h-83l15 40h63q-2 26 -2 41q0 14 2 42h-85
l15 40h75q16 87 63.5 149.5t120 95.5t161.5 33q54 0 109 -11t95 -32l-14 -75q-92 47 -173 47q-109 0 -178 -55.5z" />
    <glyph glyph-name="trademark" unicode="&#x2122;" horiz-adv-x="748" 
d="M33 700h269v-43h-107v-267h-55v267h-107v43zM669 700v-310h-52v220l-88 -158h-38l-92 156v-218h-53v310h54l109 -193l105 193h55z" />
    <glyph glyph-name="minus" unicode="&#x2212;" horiz-adv-x="666" 
d="M541 306h-417v58h417v-58z" />
    <glyph glyph-name="a.alt" horiz-adv-x="639" 
d="M561 520v-520h-82v100q-27 -50 -77.5 -78.5t-117.5 -28.5q-76 0 -130 35t-81.5 96t-27.5 137q0 75 27.5 135t82.5 95.5t132 35.5q66 0 117 -28t77 -82l9 103h71zM432.5 112q48.5 56 48.5 149q0 90 -47.5 146.5t-128.5 56.5q-82 0 -129.5 -55t-47.5 -148q0 -95 47 -150
t130 -55q79 0 127.5 56z" />
    <glyph glyph-name="a.alt2" horiz-adv-x="568" 
d="M444 490q51 -37 51 -131v-359h-74v102q-22 -47 -71 -78t-128 -31q-88 0 -138 39t-50 118q0 87 61.5 123t177.5 36q66 0 140 -8v58q0 56 -33 80t-105 24q-41 0 -94.5 -9.5t-97.5 -23.5l-5 70q102 27 206 27q109 0 160 -37zM364.5 90q48.5 39 48.5 101v57q-61 9 -129 9
q-84 0 -125 -24.5t-41 -79.5q0 -54 35 -78t90 -24q73 0 121.5 39z" />
    <glyph glyph-name="uni0416.bg" horiz-adv-x="1020" 
d="M552 228v-228h-84v229l-135 142l-227 -371h-102l270 433l-252 267h102l344 -368v368h84v-369l44 48l300 321h103l-252 -267l269 -433h-101l-227 371z" />
    <glyph glyph-name="uni041A.bg" horiz-adv-x="666" 
d="M333 366l-151 -163v-203h-88v700h88v-385l359 385h103l-248 -267l267 -433h-108z" />
    <glyph glyph-name="uni040C.bg" horiz-adv-x="666" 
d="M333 366l-151 -163v-203h-88v700h88v-385l359 385h103l-248 -267l267 -433h-108zM375 769h-62l68 121h84z" />
    <glyph glyph-name="uni041B.bg" horiz-adv-x="684" 
d="M581 0l-243 626l-243 -626h-88l280 705h111l279 -705h-96z" />
    <glyph glyph-name="uni0432.bg" horiz-adv-x="595" 
d="M509 323.5q43 -47.5 43 -124.5q0 -98 -66.5 -152.5t-183.5 -54.5q-95 0 -162.5 46t-67.5 160v320q0 103 59 158.5t164 55.5q107 0 163.5 -51t56.5 -137q0 -61 -32 -104t-94 -57q77 -12 120 -59.5zM154 407h132q71 0 110.5 36t39.5 96q0 63 -36.5 97.5t-103.5 34.5
q-68 0 -105 -36t-37 -108v-120zM426.5 93.5q40.5 40.5 40.5 111.5q0 68 -43 107.5t-124 39.5h-146v-157q0 -64 36.5 -103t115.5 -39q80 0 120.5 40.5z" />
    <glyph glyph-name="uni0433.bg" horiz-adv-x="484" 
d="M92.5 26q-55.5 33 -55.5 105q0 63 41.5 95t124.5 57q52 16 80 27t47 30t19 48q0 40 -29.5 57t-90.5 17q-64 0 -111.5 -17t-52.5 -19l-4 69q34 12 82.5 22t95.5 10q91 0 144 -34t54 -104q0 -50 -26.5 -80t-62 -44.5t-99.5 -32.5q-63 -18 -93.5 -39t-30.5 -61
q0 -39 30.5 -56.5t93.5 -17.5q54 0 96.5 13.5t89.5 33.5l3 -70q-36 -17 -88 -29.5t-109 -12.5q-93 0 -148.5 33z" />
    <glyph glyph-name="uni0434.bg" horiz-adv-x="632" 
d="M554 70q0 -128 -69.5 -185.5t-190.5 -57.5q-55 0 -115.5 11.5t-107.5 31.5l7 67q46 -19 105 -33.5t110 -14.5q84 0 132.5 41.5t48.5 133.5v57q-24 -50 -74 -77t-114 -27q-107 0 -173 63.5t-66 190.5t65.5 191.5t174.5 64.5q68 0 118 -29t72 -76l7 98h69zM431 131.5
q43 52.5 43 140.5t-43 140.5t-125 52.5q-88 0 -132 -51.5t-44 -141.5q0 -91 44 -142t132 -51q82 0 125 52.5z" />
    <glyph glyph-name="uni0436.bg" horiz-adv-x="811" 
d="M800 0h-91l-161 270l-100 -99v-171h-83v170l-100 100l-161 -270h-91l200 322l-195 198h92l165 -168l90 -100v480h83v-479l76 86l178 181h92l-194 -198z" />
    <glyph glyph-name="uni0437.bg" horiz-adv-x="481" 
d="M398.5 134.5q38.5 -43.5 38.5 -111.5q0 -100 -69.5 -148t-173.5 -48q-50 0 -108 8t-100 26l6 70q39 -17 95 -29t102 -12q75 0 119.5 35t44.5 99t-45 100.5t-123 36.5h-88v56h86q78 0 117.5 34t39.5 93q0 58 -38.5 89t-109.5 31q-67 0 -114 -14t-53 -16l-9 65
q35 12 85.5 20t102.5 8q102 0 161 -46.5t59 -128.5q0 -64 -34 -104.5t-89 -57.5q59 -12 97.5 -55.5z" />
    <glyph glyph-name="uni0438.bg" horiz-adv-x="611" 
d="M533 520v-520h-72l-6 94q-28 -47 -76.5 -74t-116.5 -27q-88 0 -139 49t-51 152v326h82v-319q0 -71 34.5 -108t97.5 -37q55 0 92.5 27t55 68.5t17.5 85.5v283h82z" />
    <glyph glyph-name="uni0439.bg" horiz-adv-x="611" 
d="M302 600q-69 0 -132 19l3 50q67 -19 129 -19q61 0 129 19l3 -50q-63 -19 -132 -19zM533 520v-520h-72l-6 94q-28 -47 -76.5 -74t-116.5 -27q-88 0 -139 49t-51 152v326h82v-319q0 -71 34.5 -108t97.5 -37q55 0 92.5 27t55 68.5t17.5 85.5v283h82z" />
    <glyph glyph-name="uni045D.bg" horiz-adv-x="611" 
d="M533 520v-520h-72l-6 94q-28 -47 -76.5 -74t-116.5 -27q-88 0 -139 49t-51 152v326h82v-319q0 -71 34.5 -108t97.5 -37q55 0 92.5 27t55 68.5t17.5 85.5v283h82zM347 617h-62l-82 168h77z" />
    <glyph glyph-name="uni043A.bg" horiz-adv-x="531" 
d="M427 0l-162 264l-105 -106v-158h-82v732h82v-480l265 268h90l-196 -200l200 -320h-92z" />
    <glyph glyph-name="uni045C.bg" horiz-adv-x="530" 
d="M293 600h-61l83 168h79zM264 263l-104 -105v-158h-82v520h82v-268l265 268h90l-196 -199l199 -321h-92z" />
    <glyph glyph-name="uni043B.bg" horiz-adv-x="534" 
d="M433 0l-166 451l-168 -451h-85l202 520h104l200 -520h-87z" />
    <glyph glyph-name="uni043F.bg" horiz-adv-x="612" 
d="M488 478q51 -49 51 -152v-326h-82v319q0 71 -35 108t-98 37q-55 0 -92 -27t-54.5 -68.5t-17.5 -85.5v-283h-82v520h72l6 -90q28 44 77 70.5t116 26.5q88 0 139 -49z" />
    <glyph glyph-name="uni0442.bg" horiz-adv-x="906" 
d="M786.5 478q46.5 -49 46.5 -152v-326h-82v326q0 69 -31 103.5t-88 34.5q-68 0 -101.5 -47t-33.5 -113v-304h-82v332q0 62 -34 97t-88 35q-63 0 -98 -41.5t-35 -109.5v-313h-82v520h71l5 -86q23 44 65.5 68.5t96.5 24.5q55 0 96.5 -27.5t60.5 -84.5q24 52 71 82t114 30
q82 0 128.5 -49z" />
    <glyph glyph-name="uni0446.bg" horiz-adv-x="641" 
d="M615 57v-177h-68l-3 120h-88l-3 101q-27 -49 -74.5 -78.5t-116.5 -29.5q-88 0 -139 49t-51 152v326h82v-319q0 -71 35.5 -108t96.5 -37q55 0 92.5 27t55 68.5t17.5 86.5v282h82v-463h82z" />
    <glyph glyph-name="uni0448.bg" horiz-adv-x="906" 
d="M828 520v-520h-71l-6 89q-22 -45 -64 -70.5t-97 -25.5t-97.5 28t-60.5 86q-25 -54 -70.5 -84t-112.5 -30q-83 0 -130 49t-47 152v326h82v-326q0 -69 31 -103.5t89 -34.5q68 0 101.5 47t33.5 113v304h82v-332q0 -62 34 -97t88 -35q63 0 98 41.5t35 110.5v312h82z" />
    <glyph glyph-name="uni0449.bg" horiz-adv-x="935" 
d="M910 -120h-68l-3 120h-82l-5 93q-21 -47 -63.5 -73.5t-98.5 -26.5t-99.5 29.5t-59.5 90.5q-23 -57 -68.5 -88.5t-113.5 -31.5q-83 0 -130 49t-47 152v326h82v-326q0 -69 31 -103.5t89 -34.5q68 0 101.5 47t33.5 113v304h82v-332q0 -62 34 -97t88 -35q63 0 98 41.5
t35 110.5v312h82v-463h82v-177z" />
    <glyph glyph-name="uni044C.bg" horiz-adv-x="574" 
d="M433.5 424q47.5 -25 75.5 -76t28 -124q0 -112 -62.5 -172t-168.5 -60q-107 0 -171 60t-64 177v291h82v-163q25 42 70 67t104 25t106.5 -25zM413.5 92.5q40.5 45.5 40.5 130.5q0 81 -40.5 126.5t-109.5 45.5t-110 -46t-41 -126q0 -85 41 -130.5t110 -45.5t109.5 45.5z" />
    <glyph glyph-name="uni044A.bg" horiz-adv-x="668" 
d="M526.5 424q47.5 -25 75.5 -76t28 -124q0 -112 -63 -172t-169 -60q-107 0 -170.5 60t-63.5 177v235h-158v56h240v-163q25 42 70 67t104 25t106.5 -25zM506.5 92.5q40.5 45.5 40.5 130.5q0 81 -40.5 126.5t-109.5 45.5t-110 -46t-41 -126q0 -85 41 -130.5t110 -45.5
t109.5 45.5z" />
    <glyph glyph-name="uni044B.bg" horiz-adv-x="793" 
d="M433.5 424q47.5 -25 75.5 -76t28 -124q0 -112 -62.5 -172t-168.5 -60q-107 0 -171 60t-64 177v291h82v-163q25 42 70 67t104 25t106.5 -25zM715 520v-520h-82v520h82zM413.5 92.5q40.5 45.5 40.5 130.5q0 81 -40.5 126.5t-109.5 45.5t-110 -46t-41 -126q0 -85 41 -130.5
t110 -45.5t109.5 45.5z" />
    <glyph glyph-name="uni044E.bg" horiz-adv-x="813" 
d="M372 21.5q-58 28.5 -93 83t-40 130.5h-79v-235h-82v719h82v-429h79q6 74 41 127.5t93 81.5t130 28q78 0 138 -32t93.5 -92.5t33.5 -142.5t-34 -142.5t-94 -92.5t-137 -32q-73 0 -131 28.5zM636 110q50 54 50 149q0 96 -50 150.5t-132 54.5t-132.5 -54.5t-50.5 -150.5
q0 -95 50 -149t133 -54q82 0 132 54z" />
    <glyph glyph-name="zero.tnum" 
d="M135.5 88q-71.5 97 -71.5 262q0 108 32 189t94 125.5t151 44.5q88 0 150 -44t93.5 -124.5t31.5 -188.5q0 -109 -32 -190t-94 -126t-150 -45q-133 0 -204.5 97zM481.5 137.5q45.5 74.5 45.5 212.5q0 137 -46 212t-141 75t-141 -75t-46 -211q0 -138 46 -213t142 -75
q95 0 140.5 74.5z" />
    <glyph glyph-name="one.tnum" 
d="M592 64v-64h-473v64h198v565l-176 -62l-3 69l192 68h71v-640h191z" />
    <glyph glyph-name="two.tnum" 
d="M228 89l-22 -17h357v-72h-468v64q114 100 184 157q16 12 51 42q75 64 110.5 113t35.5 114q0 68 -43 107t-123 39q-49 0 -106.5 -16t-102.5 -35l-6 80q50 20 110.5 31.5t114.5 11.5q115 0 180 -54t65 -157q0 -73 -38 -131.5t-129 -136.5q-117 -101 -170 -140z" />
    <glyph glyph-name="three.tnum" 
d="M531 307q42 -46 42 -118q0 -97 -73.5 -146.5t-195.5 -49.5q-59 0 -114.5 9.5t-91.5 24.5l6 73q111 -40 190 -40q81 0 133.5 34t52.5 103q0 71 -55 105t-130 34h-68v64h69q65 0 113.5 32t48.5 94q0 60 -45 87.5t-112 27.5q-44 0 -95.5 -12.5t-88.5 -27.5l-8 70
q32 14 91.5 26t116.5 12q107 0 169 -44.5t62 -126.5q0 -60 -34 -106t-97 -66q72 -13 114 -59z" />
    <glyph glyph-name="four.tnum" 
d="M609 231v-65h-88v-166h-82v166h-387v61l393 475h76v-471h88zM439 231v363l-302 -363h302z" />
    <glyph glyph-name="five.tnum" 
d="M477.5 404q53.5 -25 83.5 -73t30 -113q0 -105 -73 -165.5t-198 -60.5q-123 0 -216 40l6 70q37 -17 89 -30t108 -13q89 0 142 41.5t53 116.5q0 72 -47 109.5t-122 37.5q-48 0 -85.5 -17.5t-61.5 -39.5l-66 14l7 379h428v-71h-356l-6 -250q32 24 74.5 37t87.5 13
q69 0 122.5 -25z" />
    <glyph glyph-name="six.tnum" 
d="M550 385q65 -57 65 -162q0 -108 -71 -169t-190 -61q-88 0 -144.5 35.5t-91.5 101.5q-44 85 -44 205q0 79 19.5 149t57.5 120t95.5 77.5t142.5 27.5q48 0 98 -9t87 -23l-8 -70q-36 15 -82 25t-89 10q-68 0 -112.5 -24t-73.5 -68q-48 -71 -48 -191q0 -31 3 -45
q25 59 81 93.5t136 34.5q104 0 169 -57zM478.5 101.5q46.5 44.5 46.5 119.5q0 73 -46.5 116t-121.5 43q-55 0 -95 -23t-61 -61t-21 -81q0 -24 9 -53q16 -49 61 -77t105 -28q77 0 123.5 44.5z" />
    <glyph glyph-name="seven.tnum" 
d="M600 700v-68l-327 -632h-98l333 626h-428v74h520z" />
    <glyph glyph-name="eight.tnum" 
d="M564.5 307.5q42.5 -46.5 42.5 -120.5q0 -96 -73 -146t-192 -50q-121 0 -195 50.5t-74 147.5q0 72 42 118.5t115 64.5q-58 16 -91.5 58t-33.5 100q0 85 64.5 132t170.5 47q107 0 171 -47t64 -132q0 -58 -34 -100t-91 -59q72 -17 114.5 -63.5zM229 437.5
q39 -32.5 111 -32.5t111 32.5t39 83.5q0 56 -40.5 87.5t-109.5 31.5t-109.5 -31.5t-40.5 -87.5q0 -51 39 -83.5zM470 97q49 35 49 99t-48 101t-130 37t-130 -37t-48 -101t49 -99t129 -35t129 35z" />
    <glyph glyph-name="nine.tnum" 
d="M605 364q0 -76 -19 -146t-58 -121q-78 -104 -237 -104q-49 0 -100.5 9t-88.5 23l7 75q39 -17 86 -28.5t90 -11.5q127 0 186 91q44 69 47 190q0 31 -2 45q-25 -59 -81 -93t-136 -34q-104 0 -169.5 57t-65.5 162q0 109 71 170t190 61q89 0 146.5 -36t90.5 -102
q43 -86 43 -207zM418 345q40 23 61 60.5t21 80.5q0 25 -9 54q-16 49 -61 77t-105 28q-77 0 -123.5 -45t-46.5 -119q0 -73 46.5 -116t121.5 -43q55 0 95 23z" />
    <glyph glyph-name="zero.zero" 
d="M491 665q62 -44 93.5 -124.5t31.5 -188.5q0 -109 -32 -190t-94 -126t-150 -45q-133 0 -204.5 97t-71.5 262q0 108 32 189t94 125.5t151 44.5q88 0 150 -44zM199 562q-46 -75 -46 -211q0 -110 30 -182l292 403q-48 65 -135 65q-95 0 -141 -75zM481.5 137.5
q45.5 74.5 45.5 212.5q0 100 -24 167l-290 -398q48 -56 128 -56q95 0 140.5 74.5z" />
    <glyph glyph-name="exclamdown.case" horiz-adv-x="269" 
d="M96.5 627.5q-14.5 12.5 -14.5 36.5q0 23 14.5 35.5t37.5 12.5q24 0 38 -12.5t14 -35.5q0 -24 -14 -36.5t-38 -12.5q-23 0 -37.5 12.5zM100 517h68l13 -517h-94z" />
    <glyph glyph-name="questiondown.case" horiz-adv-x="449" 
d="M299 697.5q14 -12.5 14 -36.5q0 -23 -14.5 -35.5t-37.5 -12.5q-24 0 -38 12.5t-14 35.5q0 25 14 37t38 12t38 -12.5zM299 445q0 -37 -13.5 -65t-33 -47t-52.5 -44q-42 -32 -63 -58t-21 -65q0 -51 38 -79.5t97 -28.5q69 0 161 42l11 -68q-90 -40 -177 -40q-91 0 -152 42.5
t-61 127.5q0 41 14.5 70t34.5 48.5t54 44.5q44 33 65.5 58.5t23.5 65.5q1 11 1 34q0 22 -1 33h74v-71z" />
    <glyph glyph-name="braceleft.case" horiz-adv-x="339" 
d="M173 381q-19 -26 -55 -31q36 -5 55 -31t19 -70v-212q0 -42 18.5 -61t60.5 -19h37v-58h-52q-80 0 -110.5 36t-30.5 105v213q0 70 -62 70h-17v54h17q62 0 62 70v213q0 69 30.5 105t110.5 36h52v-58h-37q-42 0 -60.5 -19t-18.5 -61v-212q0 -44 -19 -70z" />
    <glyph glyph-name="braceright.case" horiz-adv-x="339" 
d="M304 377v-54h-17q-62 0 -62 -70v-213q0 -69 -30.5 -105t-110.5 -36h-52v58h37q42 0 60.5 19t18.5 61v212q0 44 19 70t55 31q-36 5 -55 31t-19 70v212q0 42 -18.5 61t-60.5 19h-37v58h52q80 0 110.5 -36t30.5 -105v-213q0 -70 62 -70h17z" />
    <glyph glyph-name="bracketleft.case" horiz-adv-x="314" 
d="M278 743h-104v-786h104v-58h-183v902h183v-58z" />
    <glyph glyph-name="bracketright.case" horiz-adv-x="314" 
d="M219 -101h-183v58h104v786h-104v58h183v-902z" />
    <glyph glyph-name="parenleft.case" horiz-adv-x="324" 
d="M185.5 610q-53.5 -112 -53.5 -261q0 -254 181 -450h-87q-67 68 -121 184.5t-54 265.5q0 148 54 266t121 186h87q-74 -79 -127.5 -191z" />
    <glyph glyph-name="parenright.case" horiz-adv-x="324" 
d="M219 615q54 -118 54 -266q0 -149 -54 -265.5t-121 -184.5h-87q181 196 181 450q0 149 -53.5 261t-127.5 191h87q67 -68 121 -186z" />
    <glyph glyph-name="emdash.case" horiz-adv-x="901" 
d="M829 321h-757v63h757v-63z" />
    <glyph glyph-name="endash.case" horiz-adv-x="605" 
d="M533 322l-461 -1v63h461v-62z" />
    <glyph glyph-name="hyphen.case" horiz-adv-x="487" 
d="M415 321h-343v63h343v-63z" />
    <glyph glyph-name="guillemotleft.case" horiz-adv-x="488" 
d="M233 568l-121 -222l121 -222h-67l-120 222l119 222h68zM315 346l121 -222h-67l-120 222l119 222h68z" />
    <glyph glyph-name="guillemotright.case" horiz-adv-x="487" 
d="M120 568l119 -222l-119 -222h-68l122 222l-122 222h68zM441 346l-119 -222h-68l122 222l-122 222h68z" />
    <glyph glyph-name="guilsinglleft.case" horiz-adv-x="286" 
d="M113 346l120 -222h-67l-120 222l119 222h68z" />
    <glyph glyph-name="guilsinglright.case" horiz-adv-x="286" 
d="M240 346l-119 -222h-68l120 222l-120 222h68z" />
    <glyph glyph-name="cent.tnum" 
d="M554 103q-70 -28 -144 -30l1 -80h-48l1 82q-113 11 -179 80t-66 185t66.5 185.5t178.5 79.5l-1 83h48l-1 -81q83 -2 145 -25l-8 -69q-24 12 -60.5 21.5t-75.5 9.5q-100 0 -154 -56t-54 -148q0 -93 54.5 -148.5t155.5 -55.5q66 0 134 34z" />
    <glyph glyph-name="dollar.tnum" 
d="M525 47.5q-58 -48.5 -161 -53.5v-87h-48v88q-65 5 -111.5 18.5t-97.5 35.5l10 75q39 -20 100.5 -40.5t120.5 -20.5q76 0 115.5 29t39.5 84q0 43 -23.5 68t-56 37.5t-105.5 34.5q-64 19 -106 40t-69.5 60t-27.5 100q0 86 55.5 137t155.5 56v83h48v-83q59 -3 104.5 -15.5
t88.5 -30.5l-12 -76q-30 16 -84.5 34t-113.5 18q-73 0 -112.5 -30t-39.5 -85q0 -42 24.5 -67.5t57.5 -38t104 -33.5q97 -28 149.5 -70.5t52.5 -126.5q0 -92 -58 -140.5z" />
    <glyph glyph-name="Euro.tnum" 
d="M291 582.5q-69 -55.5 -90 -151.5h335l-15 -40h-326q-2 -28 -2 -42q0 -15 2 -41h295l-15 -40h-274q21 -97 89 -151.5t174 -54.5q44 0 76.5 8.5t78.5 26.5l1 -77q-41 -15 -79.5 -22t-88.5 -7q-137 0 -229.5 73.5t-115.5 203.5h-83l15 40h63q-2 26 -2 41q0 14 2 42h-85
l15 40h75q16 87 63.5 149.5t120 95.5t161.5 33q54 0 109 -11t95 -32l-14 -75q-92 47 -173 47q-109 0 -178 -55.5z" />
    <glyph glyph-name="sterling.tnum" 
d="M586 65v-65h-487v60q0 -4 31.5 11t56.5 49.5t25 95.5q0 37 -15 89h-92v56h72q-11 33 -17.5 62t-6.5 63q0 105 65.5 164t178.5 59q44 0 89.5 -10t79.5 -27l-9 -76q-31 18 -73 30.5t-80 12.5q-82 0 -124 -40.5t-42 -114.5q0 -32 7 -59.5t20 -63.5h249v-56h-230
q13 -42 13 -84q0 -67 -28.5 -105t-63.5 -51h381z" />
    <glyph glyph-name="yen.tnum" 
d="M384 274h138v-47h-138v-62h138v-46h-138v-119h-88v119h-139v46h139v62h-139v47h139v1l-252 425h91l207 -355l206 355h88l-252 -425v-1z" />
    <glyph glyph-name="gravecomb.case" horiz-adv-x="0" 
d="M-42 773h-59l-68 121h79z" />
    <glyph glyph-name="acute.case" horiz-adv-x="328" 
d="M161 589h-62l68 121h84z" />
    <glyph glyph-name="breve.case" horiz-adv-x="470" 
d="M75 712l57 5q22 -71 102 -71q78 0 103 71l56 -5q-24 -115 -159 -115t-159 115z" />
    <glyph glyph-name="caron.case" horiz-adv-x="478" 
d="M412 712l-132 -123h-81l-132 123h83l89 -87l90 87h83z" />
    <glyph glyph-name="circumflex.case" horiz-adv-x="478" 
d="M325 589l-90 87l-89 -87h-83l132 123h81l132 -123h-83z" />
    <glyph glyph-name="dieresis.case" horiz-adv-x="483" 
d="M104 631q-12 12 -12 34q0 46 47 46t47 -46q0 -22 -12 -34t-36 -12q-22 0 -34 12zM310.5 631q-11.5 12 -11.5 34q0 46 46 46q47 0 47 -46q0 -22 -12 -34t-36 -12q-22 0 -33.5 12z" />
    <glyph glyph-name="dotaccent.case" horiz-adv-x="265" 
d="M91 661q0 20 11 30.5t33 10.5q45 0 45 -41q0 -42 -45 -42q-44 0 -44 42z" />
    <glyph glyph-name="grave.case" horiz-adv-x="322" 
d="M226 589h-59l-68 121h79z" />
    <glyph glyph-name="hungarumlaut.case" horiz-adv-x="482" 
d="M168 589h-62l59 121h78zM314 589h-62l59 121h78z" />
    <glyph glyph-name="Agravecy" horiz-adv-x="687" 
d="M518 180h-354l-70 -180h-88l282 704h111l281 -704h-92zM491 249l-149 380h-2l-149 -380h300zM380 769h-59l-68 121h79z" />
    <glyph glyph-name="Hardsigngravecy" horiz-adv-x="763" 
d="M670.5 370.5q58.5 -57.5 58.5 -153.5q0 -66 -27 -115t-75 -75.5t-111 -26.5h-328v631h-176v69h262v-272h233q105 0 163.5 -57.5zM605.5 109q37.5 41 37.5 107t-39 104.5t-108 38.5h-222v-291h226q68 0 105.5 41zM480 769h-59l-68 121h79z" />
    <glyph glyph-name="Iagravecy" horiz-adv-x="695" 
d="M601 700v-700h-88v280h-225l-134 -280h-97l147 285q-72 19 -113.5 73.5t-41.5 129.5q0 59 25.5 107.5t74 76.5t113.5 28h339zM514 631h-235q-64 0 -102 -39.5t-38 -100.5q0 -62 38 -102.5t102 -40.5h235v283zM446 769h-59l-68 121h79z" />
    <glyph glyph-name="Iugravecy" horiz-adv-x="1038" 
d="M466.5 30.5q-75.5 39.5 -120.5 112t-52 170.5h-114v-313h-86v700h86v-318h113q7 99 52 173t121 114t174 40q104 0 183.5 -44.5t122.5 -126t43 -189.5q0 -107 -43 -188t-122 -125.5t-184 -44.5q-98 0 -173.5 39.5zM775 95q58 34 90 99t32 154q0 90 -32 155.5t-90.5 100.5
t-134.5 35q-75 0 -133 -35t-90.5 -100.5t-32.5 -155.5q0 -89 32.5 -154t90.5 -99t133 -34q77 0 135 34zM662 769h-59l-68 121h79z" />
    <glyph glyph-name="Ogravecy" horiz-adv-x="806" 
d="M217 35.5q-80 44.5 -123.5 125.5t-43.5 188t44 189t124 126.5t185 44.5q106 0 186 -44.5t123.5 -126t43.5 -189.5q0 -107 -43 -188t-123 -125.5t-187 -44.5q-106 0 -186 44.5zM540.5 96q58.5 34 91 98.5t32.5 153.5t-32 154.5t-91 100.5t-137 35t-137 -34.5t-91.5 -100
t-32.5 -155.5q0 -89 32.5 -153.5t91.5 -98.5t137 -34t136.5 34zM441 769h-59l-68 121h79z" />
    <glyph glyph-name="Ugravecy" horiz-adv-x="603" 
d="M355 769h-59l-68 121h79zM601 700l-247 -558q-23 -48 -47 -79t-61.5 -49t-92.5 -18q-22 0 -48 4.5t-46 12.5l6 76q6 -2 20.5 -9t27.5 -10.5t24 -3.5q50 0 74 18.5t43 55.5l11 23l-254 537h93l215 -455l190 455h92z" />
    <glyph glyph-name="agravecy" horiz-adv-x="587" 
d="M588 5q-45 -9 -73 -9q-44 0 -70.5 16.5t-26.5 53.5v5q-28 -36 -77.5 -57t-117.5 -21q-89 0 -139 39t-50 118q0 87 61.5 123t177.5 36q56 0 140 -8v58q0 55 -33 79.5t-104 24.5q-42 0 -96 -9.5t-97 -23.5l-5 70q102 27 206 27q109 0 160 -37t51 -131v-252q0 -21 6.5 -30
t14 -10.5t21.5 -1.5q7 0 24 5t26 7zM364.5 89q48.5 38 48.5 101v59q-72 8 -129 8q-84 0 -125 -24.5t-41 -79.5q0 -54 35 -78t90 -24q73 0 121.5 38zM329 600h-62l-82 168h77z" />
    <glyph glyph-name="hardsigngravecy" horiz-adv-x="668" 
d="M526.5 424q47.5 -25 75.5 -76t28 -124q0 -112 -63 -172t-169 -60q-107 0 -170.5 60t-63.5 177v235h-158v56h240v-163q25 42 70 67t104 25t106.5 -25zM506.5 92.5q40.5 45.5 40.5 130.5q0 81 -40.5 126.5t-109.5 45.5t-110 -46t-41 -126q0 -85 41 -130.5t110 -45.5
t109.5 45.5zM436 600h-62l-82 168h77z" />
    <glyph glyph-name="iagravecy" horiz-adv-x="569" 
d="M490 520v-520h-82v200h-172l-105 -200h-90l116 206q-50 14 -79.5 56.5t-29.5 100.5q0 69 43.5 113t115.5 44h283zM408 465h-173q-49 0 -78.5 -27t-29.5 -75q0 -49 29 -79t74 -30h178v211zM367 600h-62l-82 168h77z" />
    <glyph glyph-name="iugravecy" horiz-adv-x="813" 
d="M372 21.5q-58 28.5 -93 83t-40 130.5h-79v-235h-82v719h82v-429h79q6 74 41 127.5t93 81.5t130 28q78 0 138 -32t93.5 -92.5t33.5 -142.5t-34 -142.5t-94 -92.5t-137 -32q-73 0 -131 28.5zM636 110q50 54 50 149q0 96 -50 150.5t-132 54.5t-132.5 -54.5t-50.5 -150.5
q0 -95 50 -149t133 -54q82 0 132 54zM544 600h-62l-82 168h77z" />
    <glyph glyph-name="ogravecy" horiz-adv-x="626" 
d="M173.5 24q-60.5 32 -94.5 93t-34 143t34 142.5t94.5 92.5t139.5 32t139.5 -32.5t94.5 -92.5t34 -142t-34 -143t-94.5 -93t-139.5 -32t-139.5 32zM446.5 110q50.5 54 50.5 149q0 96 -50.5 150.5t-134.5 54.5t-134 -54.5t-50 -150.5q0 -95 50 -149t134 -54t134.5 54z
M357 600h-62l-82 168h77z" />
    <glyph glyph-name="ugravecy" horiz-adv-x="534" 
d="M316 600h-62l-82 168h77zM521 520l-268 -690h-85l65 162l-220 528h86l176 -443l165 443h81z" />
    </font>
</defs>
</svg>
